<svg width="36" height="36" viewBox="0 0 36 36" fill="none" xmlns="http://www.w3.org/2000/svg">
<path d="M9.8 21.225L14.8 26.199L24.774 16.221L19.784 11.23L9.8 21.225Z" fill="#990000"/>
<path d="M14.8 26.199C14.5465 26.4528 14.2455 26.6542 13.9142 26.7916C13.5829 26.9291 13.2277 26.9998 12.869 27H9V23.156C9 22.432 9.288 21.737 9.8 21.225M14.8 26.199L9.8 21.225M14.8 26.199L24.774 16.221M9.8 21.225L19.784 11.23M24.774 16.221L26.203 14.793C26.7155 14.2804 27.0035 13.5853 27.0035 12.8605C27.0035 12.1356 26.7155 11.4405 26.203 10.928L25.077 9.80096C24.8231 9.54695 24.5217 9.34546 24.1899 9.20803C23.8581 9.0706 23.5024 8.99991 23.1433 9C22.7842 9.00009 22.4286 9.07097 22.0968 9.20857C21.7651 9.34618 21.4638 9.54781 21.21 9.80196L19.784 11.23M24.774 16.221L19.783 11.23M24.774 16.221L19.784 11.23" stroke="#990000" stroke-width="1.5" stroke-linecap="round" stroke-linejoin="round"/>
</svg>
