<svg width="30" height="30" viewBox="0 0 30 30" fill="none" xmlns="http://www.w3.org/2000/svg">
<rect width="30" height="30" rx="15" fill="#0160D5"/>
<path d="M10.1115 22.5002C9.12982 22.5002 8.33398 21.6836 8.33398 20.6752V13.3402C8.33398 12.7861 8.57982 12.2611 9.00065 11.9152L13.8898 7.90023C14.2022 7.64155 14.5951 7.5 15.0007 7.5C15.4062 7.5 15.7991 7.64155 16.1115 7.90023L20.9998 11.9152C21.4215 12.2611 21.6673 12.7861 21.6673 13.3402V20.6752C21.6673 21.6836 20.8715 22.5002 19.8898 22.5002H10.1115Z" stroke="white" stroke-width="1.5" stroke-linecap="round" stroke-linejoin="round"/>
<path d="M12.918 22.5V17.9167C12.918 17.4746 13.0936 17.0507 13.4061 16.7382C13.7187 16.4256 14.1426 16.25 14.5846 16.25H15.418C15.86 16.25 16.2839 16.4256 16.5965 16.7382C16.909 17.0507 17.0846 17.4746 17.0846 17.9167V22.5" stroke="white" stroke-width="1.5" stroke-linecap="round" stroke-linejoin="round"/>
</svg>
