<svg width="24" height="24" viewBox="0 0 24 24" fill="none" xmlns="http://www.w3.org/2000/svg">
<path d="M9.367 2.25C8.275 2.25 7.409 2.25 6.712 2.307C5.998 2.365 5.395 2.487 4.844 2.767C3.94999 3.22267 3.22324 3.94977 2.768 4.844C2.487 5.394 2.365 5.998 2.307 6.712C2.25 7.409 2.25 8.275 2.25 9.367V14.633C2.25 15.725 2.25 16.591 2.307 17.288C2.365 18.002 2.487 18.605 2.767 19.157C3.22284 20.0506 3.94992 20.777 4.844 21.232C5.394 21.513 5.998 21.635 6.712 21.693C7.409 21.75 8.275 21.75 9.367 21.75H14.633C15.725 21.75 16.591 21.75 17.288 21.693C18.002 21.635 18.605 21.513 19.157 21.233C20.0505 20.7774 20.7768 20.0507 21.232 19.157C21.513 18.605 21.635 18.002 21.693 17.288C21.75 16.591 21.75 15.725 21.75 14.633V9.367C21.75 8.275 21.75 7.409 21.693 6.712C21.635 5.998 21.513 5.395 21.233 4.844C20.7776 3.95014 20.0509 3.22341 19.157 2.768C18.605 2.487 18.002 2.365 17.288 2.307C16.591 2.25 15.725 2.25 14.633 2.25H9.367ZM16.25 6.5C16.25 6.30109 16.329 6.11032 16.4697 5.96967C16.6103 5.82902 16.8011 5.75 17 5.75H17.5C17.6989 5.75 17.8897 5.82902 18.0303 5.96967C18.171 6.11032 18.25 6.30109 18.25 6.5C18.25 6.69891 18.171 6.88968 18.0303 7.03033C17.8897 7.17098 17.6989 7.25 17.5 7.25H17C16.8011 7.25 16.6103 7.17098 16.4697 7.03033C16.329 6.88968 16.25 6.69891 16.25 6.5ZM10.043 8.228C10.5393 7.96031 11.0839 7.79405 11.645 7.73891C12.2062 7.68377 12.7727 7.74084 13.3116 7.90682C13.8505 8.07279 14.351 8.34433 14.7839 8.70563C15.2168 9.06694 15.5734 9.51077 15.8331 10.0113C16.0928 10.5118 16.2503 11.059 16.2964 11.621C16.3425 12.1829 16.2763 12.7485 16.1017 13.2846C15.9271 13.8208 15.6476 14.3168 15.2793 14.7439C14.9111 15.1709 14.4616 15.5204 13.957 15.772C12.9588 16.2697 11.8051 16.355 10.7446 16.0096C9.68404 15.6642 8.8018 14.9158 8.28815 13.9258C7.77451 12.9358 7.67062 11.7835 7.99892 10.7176C8.32721 9.65165 9.06136 8.75749 10.043 8.228Z" fill="black"/>
</svg>
