<svg width="24" height="24" viewBox="0 0 24 24" fill="none" xmlns="http://www.w3.org/2000/svg">
<path d="M10.46 13.895L4.927 13.895C2.381 13.895 5.691 2.99998 7.515 2.99998L20.036 2.99998C20.2894 2.99785 20.5332 3.0964 20.714 3.27397C20.8948 3.45154 20.9976 3.69361 21 3.94699L21 13.332C21 13.679 20.807 13.998 20.498 14.164C18.436 15.27 16.017 16.176 14.82 18.293L13.54 20.559C13.4637 20.6936 13.3528 20.8055 13.2189 20.883C13.085 20.9605 12.9328 21.0009 12.778 21C9.598 21 10.541 16.37 10.973 14.53C10.9904 14.4534 10.9902 14.3738 10.9724 14.2973C10.9546 14.2208 10.9197 14.1493 10.8704 14.0882C10.821 14.0271 10.7584 13.9779 10.6874 13.9445C10.6163 13.911 10.5386 13.8941 10.46 13.895Z" fill="#FF1A1A" stroke="#FF1A1A" stroke-width="1.5" stroke-linecap="round" stroke-linejoin="round"/>
</svg>
