<svg width="24" height="24" viewBox="0 0 24 24" fill="none" xmlns="http://www.w3.org/2000/svg">
<path d="M10.11 3.9C10.1348 3.65334 10.2503 3.42467 10.4342 3.25838C10.618 3.09208 10.8571 3 11.105 3H12.895C13.1429 3 13.382 3.09208 13.5658 3.25838C13.7497 3.42467 13.8652 3.65334 13.89 3.9L13.923 4.233C14.701 4.42562 15.4457 4.73406 16.132 5.148L16.391 4.936C16.5829 4.77908 16.8263 4.69905 17.0739 4.71143C17.3215 4.72381 17.5557 4.82772 17.731 5.003L18.997 6.269C19.1723 6.44432 19.2762 6.67849 19.2886 6.9261C19.301 7.1737 19.2209 7.41707 19.064 7.609L18.852 7.869C19.261 8.545 19.572 9.288 19.767 10.077L20.099 10.11C20.3458 10.1346 20.5747 10.25 20.7413 10.4339C20.9078 10.6177 21 10.8569 21 11.105V12.895C21 13.1429 20.9079 13.382 20.7416 13.5658C20.5753 13.7497 20.3467 13.8652 20.1 13.89L19.767 13.923C19.5744 14.701 19.2659 15.4457 18.852 16.132L19.064 16.391C19.2209 16.5829 19.301 16.8263 19.2886 17.0739C19.2762 17.3215 19.1723 17.5557 18.997 17.731L17.731 18.997C17.5557 19.1723 17.3215 19.2762 17.0739 19.2886C16.8263 19.301 16.5829 19.2209 16.391 19.064L16.131 18.852C15.445 19.2658 14.7007 19.5743 13.923 19.767L13.89 20.099C13.8654 20.3458 13.75 20.5747 13.5661 20.7413C13.3823 20.9078 13.1431 21 12.895 21H11.105C10.8571 21 10.618 20.9079 10.4342 20.7416C10.2503 20.5753 10.1348 20.3467 10.11 20.1L10.077 19.767C9.29899 19.5744 8.55434 19.2659 7.868 18.852L7.609 19.064C7.41707 19.2209 7.1737 19.301 6.9261 19.2886C6.67849 19.2762 6.44432 19.1723 6.269 18.997L5.003 17.73C4.82772 17.5547 4.72381 17.3205 4.71143 17.0729C4.69905 16.8253 4.77908 16.5819 4.936 16.39L5.148 16.13C4.73416 15.444 4.42572 14.6997 4.233 13.922L3.9 13.89C3.65334 13.8652 3.42467 13.7497 3.25838 13.5658C3.09208 13.382 3 13.1429 3 12.895V11.105C3 10.8571 3.09208 10.618 3.25838 10.4342C3.42467 10.2503 3.65334 10.1348 3.9 10.11L4.233 10.077C4.42562 9.29899 4.73406 8.55434 5.148 7.868L4.936 7.609C4.77908 7.41707 4.69905 7.1737 4.71143 6.9261C4.72381 6.67849 4.82772 6.44432 5.003 6.269L6.27 5.003C6.44532 4.82772 6.67949 4.72381 6.9271 4.71143C7.1747 4.69905 7.41807 4.77908 7.61 4.936L7.87 5.148C8.55603 4.73416 9.30033 4.42572 10.078 4.233L10.11 3.9Z" stroke="black" stroke-linecap="round" stroke-linejoin="round"/>
<path d="M14.5 12C14.5 11.337 14.2366 10.7011 13.7678 10.2322C13.2989 9.76339 12.663 9.5 12 9.5C11.337 9.5 10.7011 9.76339 10.2322 10.2322C9.76339 10.7011 9.5 11.337 9.5 12C9.5 12.663 9.76339 13.2989 10.2322 13.7678C10.7011 14.2366 11.337 14.5 12 14.5C12.663 14.5 13.2989 14.2366 13.7678 13.7678C14.2366 13.2989 14.5 12.663 14.5 12Z" stroke="black" stroke-linecap="round" stroke-linejoin="round"/>
</svg>
