<svg width="24" height="24" viewBox="0 0 24 24" fill="none" xmlns="http://www.w3.org/2000/svg">
<path d="M13.997 7.75H17.398C19.782 7.75 21.75 9.633 21.75 12C21.75 14.367 19.782 16.25 17.398 16.25H13.998C13.799 16.25 13.6083 16.171 13.4676 16.0303C13.327 15.8897 13.248 15.6989 13.248 15.5C13.248 15.3011 13.327 15.1103 13.4676 14.9697C13.6083 14.829 13.799 14.75 13.998 14.75H17.398C18.993 14.75 20.249 13.499 20.249 12C20.249 10.501 18.993 9.25 17.399 9.25H13.997C13.798 9.25 13.6073 9.17098 13.4666 9.03033C13.326 8.88968 13.247 8.69891 13.247 8.5C13.247 8.30109 13.326 8.11032 13.4666 7.96967C13.6073 7.82902 13.798 7.75 13.997 7.75ZM7.00195 12C7.00195 11.8011 7.08097 11.6103 7.22162 11.4697C7.36228 11.329 7.55304 11.25 7.75195 11.25H16.241C16.4399 11.25 16.6306 11.329 16.7713 11.4697C16.9119 11.6103 16.991 11.8011 16.991 12C16.991 12.1989 16.9119 12.3897 16.7713 12.5303C16.6306 12.671 16.4399 12.75 16.241 12.75H7.75195C7.55304 12.75 7.36228 12.671 7.22162 12.5303C7.08097 12.3897 7.00195 12.1989 7.00195 12Z" fill="black"/>
<path d="M10.003 7.75H6.602C4.218 7.75 2.25 9.633 2.25 12C2.25 14.367 4.218 16.25 6.602 16.25H10.002C10.2009 16.25 10.3917 16.171 10.5323 16.0303C10.673 15.8897 10.752 15.6989 10.752 15.5C10.752 15.3011 10.673 15.1103 10.5323 14.9697C10.3917 14.829 10.2009 14.75 10.002 14.75H6.602C5.007 14.75 3.751 13.499 3.751 12C3.751 10.501 5.007 9.25 6.6 9.25H10.002C10.2009 9.25 10.3917 9.17098 10.5323 9.03033C10.673 8.88968 10.752 8.69891 10.752 8.5C10.752 8.30109 10.673 8.11032 10.5323 7.96967C10.3917 7.82902 10.2009 7.75 10.002 7.75M16.998 12C16.998 11.8011 16.919 11.6103 16.7783 11.4697C16.6377 11.329 16.4469 11.25 16.248 11.25H7.759C7.56009 11.25 7.36932 11.329 7.22867 11.4697C7.08802 11.6103 7.009 11.8011 7.009 12C7.009 12.1989 7.08802 12.3897 7.22867 12.5303C7.36932 12.671 7.56009 12.75 7.759 12.75H16.248C16.4469 12.75 16.6377 12.671 16.7783 12.5303C16.919 12.3897 16.998 12.1989 16.998 12Z" fill="black"/>
</svg>
