<svg width="24" height="24" viewBox="0 0 24 24" fill="none" xmlns="http://www.w3.org/2000/svg">
<path d="M6.7337 16.1069L8.9097 13.7269L7.8167 12.6989L3.9707 16.8569L7.8167 21.0149L8.9097 19.9869L6.7337 17.6069H9.5447C10.6697 17.6069 11.7947 17.6369 12.9187 17.6069C14.3467 17.6059 16.2807 17.3569 17.8817 16.3299C19.5417 15.2649 20.7497 13.4239 20.7497 10.4709C20.7497 7.99194 19.4227 5.57493 17.0997 4.54093C15.2797 3.72793 14.0557 3.74093 12.2937 3.75293L11.7267 3.75493V5.25494L12.2797 5.25293C14.0997 5.24593 14.9837 5.23893 16.4897 5.90993C18.3437 6.73693 19.2497 8.56694 19.2497 10.4709C19.2497 12.9429 18.2767 14.2949 17.0717 15.0669C15.8137 15.8739 14.2077 16.1069 12.9087 16.1069H12.8887C11.7737 16.1369 10.6597 16.1069 9.5447 16.1069H6.7337Z" fill="#212121"/>
</svg>
