<svg width="24" height="24" viewBox="0 0 24 24" fill="none" xmlns="http://www.w3.org/2000/svg">
<path d="M8.699 10.6472L8.595 10.1572M13.59 9.60719L13.486 9.11719M8.5 15.5712C9.758 15.8872 11.186 15.8872 12.623 15.5022C14.059 15.1172 15.295 14.4032 16.227 13.5012" stroke="#013A7F" stroke-width="1.5" stroke-linecap="round" stroke-linejoin="round"/>
<path d="M12.5879 15.6385L13.0659 16.6125C13.1524 16.7898 13.273 16.9484 13.4208 17.0791C13.5687 17.2098 13.7409 17.31 13.9275 17.374C14.1142 17.438 14.3116 17.4646 14.5086 17.4522C14.7055 17.4398 14.8981 17.3886 15.0752 17.3016C15.2523 17.2147 15.4106 17.0936 15.5408 16.9454C15.6711 16.7972 15.7709 16.6248 15.8344 16.4379C15.8979 16.2511 15.9239 16.0536 15.911 15.8567C15.898 15.6598 15.8463 15.4674 15.7589 15.2905L15.2989 14.3555" stroke="#013A7F" stroke-width="1.5" stroke-linecap="round" stroke-linejoin="round"/>
<path d="M3 9.4C3 7.16 3 6.04 3.436 5.184C3.81949 4.43139 4.43139 3.81949 5.184 3.436C6.04 3 7.16 3 9.4 3H14.6C16.84 3 17.96 3 18.816 3.436C19.5686 3.81949 20.1805 4.43139 20.564 5.184C21 6.04 21 7.16 21 9.4V14.6C21 16.84 21 17.96 20.564 18.816C20.1805 19.5686 19.5686 20.1805 18.816 20.564C17.96 21 16.84 21 14.6 21H9.4C7.16 21 6.04 21 5.184 20.564C4.43139 20.1805 3.81949 19.5686 3.436 18.816C3 17.96 3 16.84 3 14.6V9.4Z" stroke="#013A7F" stroke-width="1.5" stroke-linecap="round" stroke-linejoin="round"/>
</svg>
