<svg width="30" height="30" viewBox="0 0 30 30" fill="none" xmlns="http://www.w3.org/2000/svg">
<rect x="0.75" y="0.75" width="28.5" height="28.5" rx="14.25" stroke="#0160D5" stroke-width="1.5"/>
<path d="M7.5 11.2775L14.3908 7.71085C14.6142 7.59585 14.7258 7.53752 14.8425 7.51502C14.9465 7.49499 15.0535 7.49499 15.1575 7.51502C15.275 7.53752 15.3858 7.59585 15.6083 7.71085L22.5 11.2775V17.8009C22.5 18.0975 22.5 18.245 22.455 18.3775C22.4159 18.4937 22.3515 18.5999 22.2667 18.6884C22.1708 18.7892 22.0392 18.8567 21.7758 18.9934L15 22.5L8.22417 18.9934C7.96083 18.8567 7.82917 18.7892 7.73333 18.6884C7.64845 18.5999 7.58414 18.4937 7.545 18.3775C7.5 18.245 7.5 18.0967 7.5 17.7992V11.2775ZM15 22.5V14.9475M22.5 11.2775L15 14.9475M7.5 11.2775L15 14.9475M18.3917 12.7738L11.5 9.20714" stroke="#0160D5" stroke-width="1.5" stroke-linecap="round" stroke-linejoin="round"/>
</svg>
