<svg width="24" height="24" viewBox="0 0 24 24" fill="none" xmlns="http://www.w3.org/2000/svg">
<path d="M12.0002 7.62699V13.127M12.0002 16.373V15.873M2.70723 10.295C2.48318 10.5188 2.30544 10.7846 2.18418 11.0772C2.06291 11.3697 2.00049 11.6833 2.00049 12C2.00049 12.3167 2.06291 12.6303 2.18418 12.9228C2.30544 13.2154 2.48318 13.4812 2.70723 13.705L10.2952 21.293C10.5191 21.517 10.7848 21.6948 11.0774 21.816C11.37 21.9373 11.6835 21.9997 12.0002 21.9997C12.3169 21.9997 12.6305 21.9373 12.9231 21.816C13.2156 21.6948 13.4814 21.517 13.7052 21.293L21.2932 13.705C21.5173 13.4812 21.695 13.2154 21.8163 12.9228C21.9376 12.6303 22 12.3167 22 12C22 11.6833 21.9376 11.3697 21.8163 11.0772C21.695 10.7846 21.5173 10.5188 21.2932 10.295L13.7052 2.70699C13.4814 2.48294 13.2156 2.3052 12.9231 2.18393C12.6305 2.06266 12.3169 2.00024 12.0002 2.00024C11.6835 2.00024 11.37 2.06266 11.0774 2.18393C10.7848 2.3052 10.5191 2.48294 10.2952 2.70699L2.70723 10.295Z" stroke="black" stroke-width="1.5" stroke-linecap="round" stroke-linejoin="round"/>
</svg>
