<svg width="30" height="30" viewBox="0 0 30 30" fill="none" xmlns="http://www.w3.org/2000/svg">
<rect x="0.75" y="0.75" width="28.5" height="28.5" rx="14.25" stroke="#0160D5" stroke-width="1.5"/>
<path d="M12.6725 18.7138C12.6725 19.8846 11.7458 20.8346 10.6033 20.8346C9.46083 20.8346 8.53417 19.8846 8.53417 18.713M12.6725 18.7138C12.6725 17.543 11.7458 16.5921 10.6033 16.5921C9.46083 16.5921 8.53417 17.5421 8.53417 18.713M12.6725 18.7138L17.3275 18.713M8.53417 18.713H7.5V10.0013C7.5 9.78029 7.5878 9.56833 7.74408 9.41205C7.90036 9.25577 8.11232 9.16797 8.33333 9.16797H16.4942C16.7152 9.16797 16.9271 9.25577 17.0834 9.41205C17.2397 9.56833 17.3275 9.78029 17.3275 10.0013V11.8196M17.3275 18.713H17.845M17.3275 18.713V11.8196M17.3275 11.8196H19.2117C19.4339 11.8197 19.6539 11.8641 19.8587 11.9504C20.0635 12.0367 20.2489 12.1631 20.4042 12.3221L22.5 14.4713V18.713H21.9825M21.9825 18.713C21.9825 19.8846 21.0567 20.8346 19.9142 20.8346C18.7717 20.8346 17.845 19.8846 17.845 18.713M21.9825 18.713C21.9825 17.5421 21.0567 16.5921 19.9142 16.5921C18.7717 16.5921 17.845 17.5421 17.845 18.713" stroke="#0160D5" stroke-width="1.5" stroke-linecap="round" stroke-linejoin="round"/>
</svg>
