<svg width="24" height="22" viewBox="0 0 24 22" fill="none" xmlns="http://www.w3.org/2000/svg">
<path d="M9.56954 2C8.56154 2 7.76215 2 7.11877 2.05262C6.45969 2.10615 5.90308 2.21877 5.39446 2.47723C4.56922 2.89785 3.89838 3.56902 3.47815 4.39446C3.21877 4.90215 3.10615 5.45969 3.05262 6.11877C3 6.76215 3 7.56154 3 8.56954V13.4305C3 14.4385 3 15.2378 3.05262 15.8812C3.10615 16.5403 3.21877 17.0969 3.47723 17.6065C3.89801 18.4314 4.56916 19.1019 5.39446 19.5218C5.90215 19.7812 6.45969 19.8938 7.11877 19.9474C7.76215 20 8.56154 20 9.56954 20H14.4305C15.4385 20 16.2378 20 16.8812 19.9474C17.5403 19.8938 18.0969 19.7812 18.6065 19.5228C19.4312 19.1022 20.1017 18.4314 20.5218 17.6065C20.7812 17.0969 20.8938 16.5403 20.9474 15.8812C21 15.2378 21 14.4385 21 13.4305V8.56954C21 7.56154 21 6.76215 20.9474 6.11877C20.8938 5.45969 20.7812 4.90308 20.5228 4.39446C20.1024 3.56936 19.4316 2.89854 18.6065 2.47815C18.0969 2.21877 17.5403 2.10615 16.8812 2.05262C16.2378 2 15.4385 2 14.4305 2H9.56954ZM12 7.07692C12.1836 7.07692 12.3597 7.14986 12.4895 7.2797C12.6194 7.40953 12.6923 7.58562 12.6923 7.76923V10.3077H15.2308C15.4144 10.3077 15.5905 10.3806 15.7203 10.5105C15.8501 10.6403 15.9231 10.8164 15.9231 11C15.9231 11.1836 15.8501 11.3597 15.7203 11.4895C15.5905 11.6194 15.4144 11.6923 15.2308 11.6923H12.6923V14.2308C12.6923 14.4144 12.6194 14.5905 12.4895 14.7203C12.3597 14.8501 12.1836 14.9231 12 14.9231C11.8164 14.9231 11.6403 14.8501 11.5105 14.7203C11.3806 14.5905 11.3077 14.4144 11.3077 14.2308V11.6923H8.76923C8.58562 11.6923 8.40953 11.6194 8.2797 11.4895C8.14986 11.3597 8.07692 11.1836 8.07692 11C8.07692 10.8164 8.14986 10.6403 8.2797 10.5105C8.40953 10.3806 8.58562 10.3077 8.76923 10.3077H11.3077V7.76923C11.3077 7.58562 11.3806 7.40953 11.5105 7.2797C11.6403 7.14986 11.8164 7.07692 12 7.07692Z" fill="#404040"/>
</svg>
