<svg width="24" height="24" viewBox="0 0 24 24" fill="none" xmlns="http://www.w3.org/2000/svg">
<g clip-path="url(#clip0_652_166146)">
<path d="M23 11H21.95C21.7157 8.70618 20.6975 6.56334 19.0671 4.93293C17.4367 3.30251 15.2938 2.28429 13 2.05V0H11V2.05C8.70618 2.28429 6.56334 3.30251 4.93293 4.93293C3.30251 6.56334 2.28429 8.70618 2.05 11H0V13H2.05C2.28429 15.2938 3.30251 17.4367 4.93293 19.0671C6.56334 20.6975 8.70618 21.7157 11 21.95V24H13V21.95C15.2938 21.7157 17.4367 20.6975 19.0671 19.0671C20.6975 17.4367 21.7157 15.2938 21.95 13H24V11H23ZM13.723 11C13.5487 10.7004 13.2996 10.4513 13 10.277V7.881C13.7555 8.06572 14.4458 8.45422 14.9958 9.00419C15.5458 9.55415 15.9343 10.2445 16.119 11H13.723ZM16.119 13C15.9343 13.7555 15.5458 14.4458 14.9958 14.9958C14.4458 15.5458 13.7555 15.9343 13 16.119V13.723C13.2996 13.5487 13.5487 13.2996 13.723 13H16.119ZM11 4.07V6.343C9.84079 6.55014 8.77292 7.10759 7.94025 7.94025C7.10759 8.77292 6.55014 9.84079 6.343 11H4.069C4.29389 9.24048 5.09647 7.60538 6.35085 6.35118C7.60523 5.09698 9.24045 4.29463 11 4.07ZM10.277 11H7.881C8.06572 10.2445 8.45422 9.55415 9.00419 9.00419C9.55415 8.45422 10.2445 8.06572 11 7.881V10.277C10.7004 10.4513 10.4513 10.7004 10.277 11ZM11 13.723V16.119C10.2445 15.9343 9.55415 15.5458 9.00419 14.9958C8.45422 14.4458 8.06572 13.7555 7.881 13H10.277C10.4513 13.2996 10.7004 13.5487 11 13.723ZM4.07 13H6.343C6.55014 14.1592 7.10759 15.2271 7.94025 16.0597C8.77292 16.8924 9.84079 17.4499 11 17.657V19.931C9.24048 19.7061 7.60538 18.9035 6.35118 17.6492C5.09698 16.3948 4.29463 14.7596 4.07 13ZM13 19.93V17.657C14.1592 17.4499 15.2271 16.8924 16.0597 16.0597C16.8924 15.2271 17.4499 14.1592 17.657 13H19.931C19.7061 14.7595 18.9035 16.3946 17.6492 17.6488C16.3948 18.903 14.7596 19.7054 13 19.93ZM17.657 11C17.4499 9.84079 16.8924 8.77292 16.0597 7.94025C15.2271 7.10759 14.1592 6.55014 13 6.343V4.069C14.7595 4.29389 16.3946 5.09647 17.6488 6.35085C18.903 7.60523 19.7054 9.24045 19.93 11H17.657Z" fill="#212121"/>
</g>
<defs>
<clipPath id="clip0_652_166146">
<rect width="24" height="24" fill="white"/>
</clipPath>
</defs>
</svg>
