<svg width="20" height="20" viewBox="0 0 20 20" fill="none" xmlns="http://www.w3.org/2000/svg">
<path d="M6.22806 5.20051C6.09335 5.0704 5.91292 4.9984 5.72563 5.00003C5.53835 5.00165 5.3592 5.07678 5.22676 5.20921C5.09433 5.34164 5.01921 5.5208 5.01758 5.70808C5.01595 5.89536 5.08795 6.07579 5.21806 6.21051L8.99878 9.99122L5.21806 13.7719C5.14984 13.8378 5.09543 13.9166 5.05799 14.0038C5.02056 14.0909 5.00085 14.1847 5.00003 14.2795C4.9992 14.3743 5.01728 14.4684 5.05319 14.5562C5.08911 14.644 5.14214 14.7237 5.20921 14.7908C5.27628 14.8579 5.35603 14.9109 5.44381 14.9468C5.53159 14.9827 5.62565 15.0008 5.72049 15C5.81533 14.9991 5.90906 14.9794 5.99621 14.942C6.08335 14.9046 6.16217 14.8502 6.22806 14.7819L10.0088 11.0012L13.7895 14.7819C13.9242 14.9121 14.1046 14.984 14.2919 14.9824C14.4792 14.9808 14.6584 14.9057 14.7908 14.7732C14.9232 14.6408 14.9983 14.4616 15 14.2744C15.0016 14.0871 14.9296 13.9067 14.7995 13.7719L11.0188 9.99122L14.7995 6.21051C14.9296 6.07579 15.0016 5.89536 15 5.70808C14.9983 5.5208 14.9232 5.34164 14.7908 5.20921C14.6584 5.07678 14.4792 5.00165 14.2919 5.00003C14.1046 4.9984 13.9242 5.0704 13.7895 5.20051L10.0088 8.98122L6.22806 5.20051Z" fill="black"/>
</svg>
