<svg width="24" height="24" viewBox="0 0 24 24" fill="none" xmlns="http://www.w3.org/2000/svg">
<path d="M14.54 10.105H20.073C22.619 10.105 19.309 21 17.485 21H4.964C4.71062 21.0021 4.46676 20.9036 4.286 20.726C4.10525 20.5485 4.00238 20.3064 4 20.053V10.668C4 10.321 4.193 10.002 4.502 9.83602C6.564 8.73002 8.983 7.82401 10.18 5.70701L11.46 3.44102C11.5363 3.30638 11.6472 3.19453 11.7811 3.11701C11.915 3.03949 12.0672 2.9991 12.222 3.00002C15.402 3.00002 14.459 7.63002 14.027 9.47002C14.0096 9.54663 14.0098 9.62618 14.0276 9.7027C14.0454 9.77922 14.0803 9.85072 14.1296 9.91183C14.179 9.97294 14.2416 10.0221 14.3126 10.0555C14.3837 10.089 14.4614 10.1059 14.54 10.105Z" fill="#1B81FE" stroke="#1B81FE" stroke-width="1.5" stroke-linecap="round" stroke-linejoin="round"/>
</svg>
