<svg width="24" height="24" viewBox="0 0 24 24" fill="none" xmlns="http://www.w3.org/2000/svg">
<path d="M12.8538 3.50009C12.7688 3.34833 12.6448 3.22199 12.4947 3.13405C12.3446 3.04611 12.1738 2.99976 11.9998 2.99976C11.8258 2.99976 11.655 3.04611 11.5049 3.13405C11.3548 3.22199 11.2309 3.34833 11.1458 3.50009C10.9458 3.86409 10.7535 4.23275 10.5688 4.60609C9.987 5.78704 9.49235 7.00897 9.08881 8.26209C8.94981 8.69309 8.53781 8.99209 8.06581 9.00509C6.63503 9.0427 5.2089 9.18474 3.79881 9.43009C3.02481 9.56609 2.73381 10.4481 3.28381 10.9861C3.40914 11.1094 3.53581 11.2311 3.66381 11.3511C4.62087 12.2549 5.63279 13.0989 6.69381 13.8781C7.06081 14.1471 7.21181 14.6081 7.07181 15.0301C6.5385 16.6331 6.15683 18.2827 5.93181 19.9571C5.83181 20.7121 6.63981 21.2451 7.34181 20.8851C8.73385 20.1713 10.065 19.3445 11.3218 18.4131C11.5187 18.2694 11.7561 18.192 11.9998 18.192C12.2435 18.192 12.481 18.2694 12.6778 18.4131C13.9344 19.3449 15.2655 20.1717 16.6578 20.8851C17.3588 21.2451 18.1678 20.7121 18.0678 19.9571C18.0291 19.6738 17.9868 19.3921 17.9408 19.1121C17.7098 17.7271 17.3711 16.3623 16.9278 15.0301C16.7878 14.6081 16.9378 14.1471 17.3058 13.8781C18.5095 12.9961 19.6491 12.0296 20.7158 10.9861C21.2658 10.4481 20.9758 9.56609 20.2008 9.43009C18.7909 9.18331 17.3647 9.04126 15.9338 9.00509C15.7076 9.00149 15.488 8.92821 15.3049 8.79525C15.1218 8.66229 14.9842 8.47611 14.9108 8.26209C14.3795 6.61276 13.6907 5.0174 12.8538 3.50009Z" stroke="black" stroke-linecap="round" stroke-linejoin="round"/>
</svg>
