<svg width="24" height="24" viewBox="0 0 24 24" fill="none" xmlns="http://www.w3.org/2000/svg">
<path d="M12.8538 3.50033C12.7688 3.34858 12.6448 3.22223 12.4947 3.13429C12.3446 3.04635 12.1738 3 11.9998 3C11.8258 3 11.655 3.04635 11.5049 3.13429C11.3548 3.22223 11.2309 3.34858 11.1458 3.50033C10.9458 3.86433 10.7535 4.233 10.5688 4.60633C9.98701 5.78729 9.49235 7.00921 9.08881 8.26233C8.94981 8.69333 8.53781 8.99233 8.06581 9.00533C6.63503 9.04294 5.2089 9.18499 3.79881 9.43033C3.02481 9.56633 2.73381 10.4483 3.28381 10.9863C3.40914 11.1097 3.53581 11.2313 3.66381 11.3513C4.62087 12.2552 5.63279 13.0991 6.69381 13.8783C7.06081 14.1473 7.21181 14.6083 7.07181 15.0303C6.5385 16.6334 6.15683 18.2829 5.93181 19.9573C5.83181 20.7123 6.63981 21.2453 7.34181 20.8853C8.73385 20.1716 10.065 19.3448 11.3218 18.4133C11.5187 18.2696 11.7561 18.1922 11.9998 18.1922C12.2435 18.1922 12.481 18.2696 12.6778 18.4133C13.9344 19.3452 15.2655 20.172 16.6578 20.8853C17.3588 21.2453 18.1678 20.7123 18.0678 19.9573C18.0291 19.674 17.9868 19.3923 17.9408 19.1123C17.7098 17.7274 17.3711 16.3626 16.9278 15.0303C16.7878 14.6083 16.9378 14.1473 17.3058 13.8783C18.5095 12.9963 19.6491 12.0299 20.7158 10.9863C21.2658 10.4483 20.9758 9.56633 20.2008 9.43033C18.7909 9.18356 17.3647 9.0415 15.9338 9.00533C15.7076 9.00173 15.488 8.92845 15.3049 8.79549C15.1218 8.66253 14.9842 8.47635 14.9108 8.26233C14.3795 6.613 13.6907 5.01765 12.8538 3.50033Z" fill="#FFBB00" stroke="#FFBB00" stroke-linecap="round" stroke-linejoin="round"/>
</svg>
