<svg class="w-full h-full " viewBox="0 0 606 147" fill="none" xmlns="http://www.w3.org/2000/svg"><g clippath="url(#clip0_2670_11418)"><path d="M74.9212 105.94C79.3645 105.94 83.5343 105.529 89.8917 97.0294C96.2491 88.5299 116.415 60.9064 116.415 60.9064C116.415 60.9064 116.415 116.976 116.415 130.068C116.415 139.047 119.628 144.188 133.094 144.188C146.561 144.188 149.774 139.116 149.774 130.068C149.774 123.145 149.774 25.6059 149.774 16.1468C149.774 3.87731 141.981 2.30078 133.094 2.30078C124.208 2.30078 120.721 3.74022 115.731 10.3205L74.9212 64.128C74.9212 64.128 39.0328 16.8322 34.0426 10.3205C29.0525 3.80876 25.6345 2.30078 16.6795 2.30078C7.72454 2.30078 0 3.87731 0 16.1468V130.068C0 139.047 3.21286 144.188 16.6795 144.188C30.1462 144.188 33.3591 139.116 33.3591 130.068V60.9064C33.3591 60.9064 53.5249 88.5299 59.8822 97.0294C66.2396 105.529 70.4095 105.94 74.8528 105.94H74.9212Z" fill="currentColor"></path><path d="M248.62 0.246094C287.243 0.246094 318.551 32.9419 318.551 73.2461C318.551 113.55 287.243 146.246 248.62 146.246C209.998 146.246 178.689 113.55 178.689 73.2461C178.689 32.9419 209.998 0.246094 248.62 0.246094ZM212.869 73.2461C212.869 94.632 228.865 111.974 248.62 111.974C268.376 111.974 284.372 94.632 284.372 73.2461C284.372 51.8602 268.376 34.5184 248.62 34.5184C228.865 34.5184 212.869 51.8602 212.869 73.2461Z" fill="currentColor"></path><path d="M468.873 73.1772C468.873 84.2814 466.959 96.4824 459.234 109.232C451.51 121.981 439 131.097 430.592 135.553C421.637 140.282 411.93 142.681 399.489 143.024C392.311 143.23 369.889 143.23 363.122 143.23C353.415 143.23 347.331 139.597 347.331 130.48V16.011C347.331 6.82604 353.415 3.26172 363.122 3.26172C369.889 3.26172 392.516 3.26172 399.489 3.46735C412.203 3.74153 421.569 6.20914 430.592 10.9387C439 15.3941 451.51 24.442 459.234 37.2598C466.959 50.0777 468.873 62.1415 468.873 73.2458V73.1772ZM430.729 55.6983C428.131 51.1059 423.073 45.4852 416.647 41.7838C410.221 38.0824 404.411 37.2598 399.831 37.1913C393.268 37.1913 381.032 37.1913 381.032 37.1913V109.3C381.032 109.3 393.268 109.3 399.831 109.3C404.411 109.3 410.358 108.341 416.647 104.708C422.936 101.075 428.131 95.3171 430.729 90.7932C434.078 84.8983 435.24 78.5922 435.24 73.3143C435.24 68.0364 434.078 61.7303 430.729 55.8354V55.6983Z" fill="currentColor"></path><path d="M585.082 73.1104C584.877 86.1339 580.57 90.041 570.864 90.041H532.309V109.439C532.309 109.439 578.862 109.576 593.012 109.576C604.428 109.576 606 117.322 606 126.232C606 135.143 604.428 142.889 592.943 143.026C588.432 143.026 522.397 143.094 515.903 143.094C503.735 143.094 498.608 139.736 498.608 127.192V19.2344C498.608 6.69072 503.735 3.33203 515.903 3.33203C522.397 3.33203 588.568 3.40058 592.943 3.40058C604.428 3.40058 606 11.2832 606 20.194C606 29.1048 604.359 36.9874 593.012 36.9874H532.309V56.3856H570.932C580.639 56.3856 584.945 60.087 585.15 73.1104H585.082Z" fill="currentColor"></path></g></svg>