<svg xmlns="http://www.w3.org/2000/svg" fill="none" viewBox="0 0 1321 467" height="467" width="1321">
<rect stroke-width="0.5" style="stroke:#B7B2A4;stroke:color(display-p3 0.7176 0.6980 0.6431);stroke-opacity:1;" stroke="#B7B2A4" rx="3.39406" height="39.2741" width="69.2997" y="200.261" x="187.04"></rect>
<rect stroke-width="0.5" style="stroke:#B7B2A4;stroke:color(display-p3 0.7176 0.6980 0.6431);stroke-opacity:1;" stroke="#B7B2A4" rx="3.39406" height="39.2064" width="39.2078" y="380.415" x="395.824"></rect>
<rect stroke-width="0.5" style="stroke:#B7B2A4;stroke:color(display-p3 0.7176 0.6980 0.6431);stroke-opacity:1;" stroke="#B7B2A4" rx="3.39406" height="39.2741" width="58.7712" y="380.415" x="332.655"></rect>
<rect stroke-width="0.5" style="stroke:#B7B2A4;stroke:color(display-p3 0.7176 0.6980 0.6431);stroke-opacity:1;" stroke="#B7B2A4" rx="3.39406" height="39.2741" width="58.7712" y="380.415" x="797.401"></rect>
<rect stroke-width="0.5" style="stroke:#B7B2A4;stroke:color(display-p3 0.7176 0.6980 0.6431);stroke-opacity:1;" stroke="#B7B2A4" rx="3.39406" height="39.2741" width="58.7712" y="380.415" x="439.434"></rect>
<rect stroke-width="0.5" style="stroke:#B7B2A4;stroke:color(display-p3 0.7176 0.6980 0.6431);stroke-opacity:1;" stroke="#B7B2A4" rx="3.39406" height="39.2741" width="290.397" y="380.415" x="502.603"></rect>
<path style="fill:#B7B2A4;fill:color(display-p3 0.7176 0.6980 0.6431);fill-opacity:1;" fill="#B7B2A4" d="M334.783 443.75C334.783 442.632 334.948 441.49 335.278 440.324C335.619 439.148 336.09 438.079 336.692 437.117C337.305 436.146 337.995 435.397 338.762 434.873V434.843H333.515V433.677H340.249V434.698C339.336 435.31 338.573 436.116 337.961 437.117C337.348 438.109 336.892 439.182 336.59 440.339C336.299 441.485 336.153 442.622 336.153 443.75H334.783ZM347.211 442.846H347.182C346.939 443.157 346.608 443.419 346.19 443.633C345.782 443.847 345.282 443.954 344.689 443.954C343.98 443.954 343.397 443.75 342.94 443.341C342.483 442.924 342.255 442.311 342.255 441.505V436.316H343.421V441.213C343.421 441.738 343.547 442.156 343.8 442.467C344.062 442.778 344.47 442.933 345.024 442.933C345.675 442.933 346.2 442.749 346.599 442.379C347.007 442.01 347.211 441.534 347.211 440.951V436.316H348.377V443.75H347.211V442.846ZM362.592 443.954C361.834 443.954 361.163 443.808 360.58 443.516C359.997 443.215 359.531 442.787 359.181 442.234C358.841 441.68 358.656 441.019 358.627 440.251H359.997C360.056 441.019 360.284 441.641 360.682 442.117C361.09 442.583 361.712 442.817 362.548 442.817C363.841 442.817 364.487 442.18 364.487 440.907C364.487 440.441 364.394 440.086 364.21 439.843C364.025 439.59 363.782 439.401 363.481 439.275C363.18 439.148 362.655 438.978 361.907 438.764C361.304 438.59 360.804 438.41 360.405 438.225C360.017 438.031 359.681 437.749 359.4 437.38C359.128 437.001 358.992 436.5 358.992 435.878C358.992 435.043 359.268 434.377 359.822 433.881C360.376 433.376 361.134 433.123 362.096 433.123C363.136 433.123 363.962 433.42 364.574 434.013C365.186 434.596 365.527 435.397 365.595 436.418H364.224C364.147 435.699 363.938 435.159 363.598 434.8C363.257 434.44 362.762 434.26 362.111 434.26C361.537 434.26 361.1 434.396 360.799 434.669C360.507 434.931 360.362 435.315 360.362 435.82C360.362 436.218 360.449 436.534 360.624 436.767C360.799 437.001 361.027 437.18 361.309 437.307C361.601 437.433 361.999 437.564 362.504 437.7C363.253 437.914 363.85 438.123 364.297 438.327C364.744 438.522 365.114 438.823 365.405 439.231C365.706 439.629 365.857 440.173 365.857 440.863C365.857 441.777 365.58 442.52 365.026 443.094C364.472 443.667 363.661 443.954 362.592 443.954ZM367.659 436.316H368.825V437.234H368.868C369.092 436.904 369.384 436.636 369.743 436.432C370.112 436.218 370.559 436.112 371.084 436.112C371.677 436.112 372.211 436.272 372.687 436.593C373.164 436.904 373.538 437.355 373.81 437.948C374.082 438.541 374.218 439.236 374.218 440.033C374.218 440.829 374.082 441.524 373.81 442.117C373.538 442.71 373.164 443.166 372.687 443.487C372.211 443.798 371.677 443.954 371.084 443.954C370.073 443.954 369.335 443.565 368.868 442.787H368.825V446.33H367.659V436.316ZM368.839 440.033C368.839 440.907 369.029 441.612 369.408 442.146C369.787 442.671 370.292 442.933 370.924 442.933C371.585 442.933 372.095 442.651 372.454 442.088C372.814 441.514 372.994 440.829 372.994 440.033C372.994 439.226 372.814 438.541 372.454 437.977C372.095 437.414 371.585 437.132 370.924 437.132C370.292 437.132 369.787 437.399 369.408 437.934C369.029 438.458 368.839 439.158 368.839 440.033ZM378.192 443.954C377.463 443.954 376.889 443.759 376.472 443.371C376.054 442.972 375.845 442.428 375.845 441.738C375.845 441.233 375.961 440.825 376.195 440.514C376.428 440.193 376.753 439.945 377.171 439.77C377.599 439.595 378.148 439.445 378.818 439.318C379.314 439.221 379.678 439.139 379.912 439.071C380.155 439.003 380.344 438.9 380.48 438.764C380.616 438.619 380.684 438.424 380.684 438.181C380.684 437.472 380.159 437.117 379.11 437.117C378.488 437.117 378.056 437.244 377.813 437.496C377.57 437.739 377.434 438.113 377.404 438.619H376.195C376.224 437.851 376.491 437.239 376.996 436.782C377.502 436.325 378.23 436.097 379.183 436.097C379.989 436.097 380.631 436.286 381.107 436.665C381.593 437.035 381.836 437.647 381.836 438.502V442.234C381.836 442.506 381.87 442.695 381.938 442.802C382.015 442.899 382.151 442.948 382.346 442.948C382.433 442.948 382.521 442.938 382.608 442.919V443.735C382.424 443.793 382.181 443.822 381.879 443.822C381.539 443.822 381.267 443.735 381.063 443.56C380.869 443.385 380.752 443.084 380.713 442.656H380.684C380.431 443.055 380.091 443.371 379.664 443.604C379.236 443.837 378.745 443.954 378.192 443.954ZM377.069 441.767C377.069 442.156 377.176 442.447 377.39 442.642C377.604 442.836 377.958 442.933 378.454 442.933C379.115 442.933 379.649 442.763 380.057 442.423C380.475 442.083 380.684 441.573 380.684 440.893V439.683C380.538 439.819 380.368 439.921 380.174 439.989C379.98 440.057 379.591 440.154 379.008 440.28C378.503 440.397 378.114 440.514 377.842 440.63C377.579 440.737 377.385 440.878 377.259 441.053C377.132 441.228 377.069 441.466 377.069 441.767ZM387.792 443.954C387.131 443.954 386.543 443.788 386.028 443.458C385.523 443.128 385.129 442.666 384.847 442.073C384.575 441.48 384.439 440.8 384.439 440.033C384.439 439.265 384.575 438.585 384.847 437.992C385.129 437.399 385.523 436.938 386.028 436.607C386.543 436.277 387.131 436.112 387.792 436.112C388.355 436.112 388.856 436.238 389.293 436.491C389.74 436.733 390.095 437.074 390.357 437.511C390.629 437.948 390.794 438.444 390.853 438.998H389.628C389.599 438.512 389.429 438.079 389.118 437.7C388.817 437.321 388.375 437.132 387.792 437.132C387.092 437.132 386.562 437.419 386.203 437.992C385.843 438.565 385.664 439.245 385.664 440.033C385.664 440.82 385.843 441.5 386.203 442.073C386.562 442.647 387.092 442.933 387.792 442.933C388.384 442.933 388.831 442.744 389.133 442.365C389.434 441.976 389.599 441.524 389.628 441.009H390.853C390.823 441.563 390.673 442.064 390.401 442.511C390.138 442.958 389.779 443.312 389.322 443.575C388.865 443.827 388.355 443.954 387.792 443.954ZM396.167 443.968C395.487 443.968 394.899 443.798 394.404 443.458C393.908 443.118 393.529 442.651 393.267 442.059C393.014 441.456 392.888 440.776 392.888 440.018C392.888 439.241 393.019 438.556 393.281 437.963C393.553 437.37 393.937 436.913 394.433 436.593C394.928 436.262 395.506 436.097 396.167 436.097C397.149 436.097 397.916 436.432 398.47 437.103C399.024 437.773 399.301 438.658 399.301 439.756C399.301 440.067 399.296 440.261 399.287 440.339H394.112C394.122 440.786 394.204 441.213 394.36 441.621C394.525 442.02 394.763 442.345 395.074 442.598C395.385 442.841 395.759 442.962 396.196 442.962C396.731 442.962 397.149 442.807 397.45 442.496C397.751 442.175 397.946 441.83 398.033 441.461H399.214C399.029 442.2 398.684 442.802 398.179 443.268C397.673 443.735 397.003 443.968 396.167 443.968ZM398.062 439.318C398.062 438.687 397.887 438.162 397.537 437.744C397.188 437.317 396.716 437.103 396.124 437.103C395.56 437.103 395.093 437.307 394.724 437.715C394.355 438.123 394.151 438.658 394.112 439.318H398.062ZM404.878 443.954C403.868 443.954 403.129 443.565 402.663 442.787H402.619V443.75H401.453V433.328H402.619V437.234H402.663C402.886 436.904 403.178 436.636 403.537 436.432C403.906 436.218 404.353 436.112 404.878 436.112C405.471 436.112 406.005 436.272 406.482 436.593C406.958 436.904 407.332 437.355 407.604 437.948C407.876 438.541 408.012 439.236 408.012 440.033C408.012 440.829 407.876 441.524 407.604 442.117C407.332 442.71 406.958 443.166 406.482 443.487C406.005 443.798 405.471 443.954 404.878 443.954ZM402.633 440.033C402.633 440.907 402.823 441.612 403.202 442.146C403.581 442.671 404.086 442.933 404.718 442.933C405.155 442.933 405.529 442.797 405.84 442.525C406.161 442.253 406.399 441.898 406.554 441.461C406.71 441.014 406.788 440.538 406.788 440.033C406.788 439.236 406.608 438.556 406.248 437.992C405.889 437.419 405.379 437.132 404.718 437.132C404.086 437.132 403.581 437.399 403.202 437.934C402.823 438.458 402.633 439.158 402.633 440.033ZM411.986 443.954C411.257 443.954 410.684 443.759 410.266 443.371C409.848 442.972 409.639 442.428 409.639 441.738C409.639 441.233 409.756 440.825 409.989 440.514C410.222 440.193 410.547 439.945 410.965 439.77C411.393 439.595 411.942 439.445 412.612 439.318C413.108 439.221 413.472 439.139 413.706 439.071C413.949 439.003 414.138 438.9 414.274 438.764C414.41 438.619 414.478 438.424 414.478 438.181C414.478 437.472 413.953 437.117 412.904 437.117C412.282 437.117 411.85 437.244 411.607 437.496C411.364 437.739 411.228 438.113 411.199 438.619H409.989C410.018 437.851 410.285 437.239 410.79 436.782C411.296 436.325 412.025 436.097 412.977 436.097C413.783 436.097 414.425 436.286 414.901 436.665C415.387 437.035 415.63 437.647 415.63 438.502V442.234C415.63 442.506 415.664 442.695 415.732 442.802C415.81 442.899 415.946 442.948 416.14 442.948C416.227 442.948 416.315 442.938 416.402 442.919V443.735C416.218 443.793 415.975 443.822 415.673 443.822C415.333 443.822 415.061 443.735 414.857 443.56C414.663 443.385 414.546 443.084 414.507 442.656H414.478C414.226 443.055 413.885 443.371 413.458 443.604C413.03 443.837 412.54 443.954 411.986 443.954ZM410.863 441.767C410.863 442.156 410.97 442.447 411.184 442.642C411.398 442.836 411.752 442.933 412.248 442.933C412.909 442.933 413.443 442.763 413.851 442.423C414.269 442.083 414.478 441.573 414.478 440.893V439.683C414.332 439.819 414.162 439.921 413.968 439.989C413.774 440.057 413.385 440.154 412.802 440.28C412.297 440.397 411.908 440.514 411.636 440.63C411.373 440.737 411.179 440.878 411.053 441.053C410.926 441.228 410.863 441.466 410.863 441.767ZM421.178 442.729H423.801V443.75H418.262V442.729H420.011V437.336H418.262V436.316H421.178V437.788H421.221C421.445 437.292 421.819 436.889 422.344 436.578C422.868 436.267 423.437 436.112 424.049 436.112C424.37 436.112 424.676 436.126 424.967 436.155V437.321C424.754 437.292 424.448 437.278 424.049 437.278C423.583 437.278 423.126 437.389 422.679 437.613C422.242 437.836 421.882 438.143 421.6 438.531C421.318 438.91 421.178 439.328 421.178 439.785V442.729Z"></path>
<path style="fill:#B7B2A4;fill:color(display-p3 0.7176 0.6980 0.6431);fill-opacity:1;" fill="#B7B2A4" d="M82.4885 224.095C81.7306 224.095 81.0601 223.95 80.477 223.658C79.894 223.357 79.4275 222.929 79.0777 222.375C78.7376 221.822 78.553 221.161 78.5238 220.393H79.894C79.9523 221.161 80.1806 221.783 80.5791 222.259C80.9872 222.725 81.6091 222.958 82.4448 222.958C83.7372 222.958 84.3835 222.322 84.3835 221.049C84.3835 220.583 84.2911 220.228 84.1065 219.985C83.9219 219.732 83.6789 219.543 83.3777 219.416C83.0765 219.29 82.5517 219.12 81.8035 218.906C81.201 218.731 80.7005 218.552 80.3021 218.367C79.9134 218.173 79.5782 217.891 79.2963 217.522C79.0243 217.143 78.8882 216.642 78.8882 216.02C78.8882 215.184 79.1652 214.519 79.7191 214.023C80.273 213.518 81.0309 213.265 81.993 213.265C83.0327 213.265 83.8587 213.562 84.4709 214.154C85.0831 214.737 85.4232 215.539 85.4912 216.56H84.1211C84.0433 215.84 83.8344 215.301 83.4943 214.942C83.1542 214.582 82.6586 214.402 82.0075 214.402C81.4342 214.402 80.9969 214.538 80.6957 214.81C80.4041 215.073 80.2584 215.457 80.2584 215.962C80.2584 216.36 80.3458 216.676 80.5208 216.909C80.6957 217.143 80.924 217.322 81.2058 217.449C81.4974 217.575 81.8958 217.706 82.4011 217.842C83.1493 218.056 83.747 218.265 84.194 218.469C84.641 218.663 85.0102 218.965 85.3018 219.373C85.603 219.771 85.7536 220.315 85.7536 221.005C85.7536 221.919 85.4767 222.662 84.9228 223.235C84.3689 223.809 83.5575 224.095 82.4885 224.095ZM92.0594 223.964C91.4569 223.964 90.9662 223.906 90.5872 223.789C90.218 223.673 89.9362 223.469 89.7418 223.177C89.5475 222.876 89.4503 222.448 89.4503 221.894V217.478H86.9723V216.457H89.4503V213.98H90.6164V216.457H93.8232V217.478H90.6164V221.953C90.6164 222.341 90.733 222.604 90.9662 222.74C91.1994 222.876 91.6124 222.944 92.2052 222.944C92.8174 222.944 93.3567 222.929 93.8232 222.9V223.891C93.415 223.94 92.8271 223.964 92.0594 223.964ZM99.1669 224.11C98.4867 224.11 97.8988 223.94 97.4032 223.6C96.9076 223.26 96.5286 222.793 96.2663 222.201C96.0136 221.598 95.8873 220.918 95.8873 220.16C95.8873 219.382 96.0185 218.697 96.2808 218.105C96.5529 217.512 96.9368 217.055 97.4324 216.734C97.928 216.404 98.5061 216.239 99.1669 216.239C100.148 216.239 100.916 216.574 101.47 217.245C102.024 217.915 102.301 218.799 102.301 219.897C102.301 220.208 102.296 220.403 102.286 220.481H97.1117C97.1214 220.928 97.204 221.355 97.3595 221.763C97.5247 222.162 97.7628 222.487 98.0737 222.74C98.3847 222.983 98.7588 223.104 99.1961 223.104C99.7306 223.104 100.148 222.949 100.45 222.638C100.751 222.317 100.945 221.972 101.033 221.603H102.213C102.029 222.341 101.684 222.944 101.178 223.41C100.673 223.877 100.003 224.11 99.1669 224.11ZM101.062 219.46C101.062 218.829 100.887 218.304 100.537 217.886C100.187 217.458 99.716 217.245 99.1232 217.245C98.5596 217.245 98.0932 217.449 97.7239 217.857C97.3546 218.265 97.1506 218.799 97.1117 219.46H101.062ZM104.452 216.457H105.619V217.376H105.662C105.886 217.045 106.177 216.778 106.537 216.574C106.906 216.36 107.353 216.253 107.878 216.253C108.471 216.253 109.005 216.414 109.481 216.734C109.957 217.045 110.331 217.497 110.604 218.09C110.876 218.683 111.012 219.378 111.012 220.174C111.012 220.971 110.876 221.666 110.604 222.259C110.331 222.852 109.957 223.308 109.481 223.629C109.005 223.94 108.471 224.095 107.878 224.095C106.867 224.095 106.129 223.707 105.662 222.929H105.619V226.471H104.452V216.457ZM105.633 220.174C105.633 221.049 105.823 221.754 106.202 222.288C106.581 222.813 107.086 223.075 107.717 223.075C108.378 223.075 108.888 222.793 109.248 222.23C109.608 221.656 109.787 220.971 109.787 220.174C109.787 219.368 109.608 218.683 109.248 218.119C108.888 217.556 108.378 217.274 107.717 217.274C107.086 217.274 106.581 217.541 106.202 218.075C105.823 218.6 105.633 219.3 105.633 220.174ZM112.901 216.457H114.067V217.376H114.111C114.334 217.045 114.626 216.778 114.985 216.574C115.355 216.36 115.802 216.253 116.326 216.253C116.919 216.253 117.454 216.414 117.93 216.734C118.406 217.045 118.78 217.497 119.052 218.09C119.324 218.683 119.46 219.378 119.46 220.174C119.46 220.971 119.324 221.666 119.052 222.259C118.78 222.852 118.406 223.308 117.93 223.629C117.454 223.94 116.919 224.095 116.326 224.095C115.316 224.095 114.577 223.707 114.111 222.929H114.067V226.471H112.901V216.457ZM114.082 220.174C114.082 221.049 114.271 221.754 114.65 222.288C115.029 222.813 115.534 223.075 116.166 223.075C116.827 223.075 117.337 222.793 117.697 222.23C118.056 221.656 118.236 220.971 118.236 220.174C118.236 219.368 118.056 218.683 117.697 218.119C117.337 217.556 116.827 217.274 116.166 217.274C115.534 217.274 115.029 217.541 114.65 218.075C114.271 218.6 114.082 219.3 114.082 220.174ZM124.512 224.11C123.832 224.11 123.244 223.94 122.749 223.6C122.253 223.26 121.874 222.793 121.612 222.201C121.359 221.598 121.233 220.918 121.233 220.16C121.233 219.382 121.364 218.697 121.626 218.105C121.898 217.512 122.282 217.055 122.778 216.734C123.274 216.404 123.852 216.239 124.512 216.239C125.494 216.239 126.262 216.574 126.816 217.245C127.369 217.915 127.646 218.799 127.646 219.897C127.646 220.208 127.642 220.403 127.632 220.481H122.457C122.467 220.928 122.55 221.355 122.705 221.763C122.87 222.162 123.108 222.487 123.419 222.74C123.73 222.983 124.104 223.104 124.542 223.104C125.076 223.104 125.494 222.949 125.795 222.638C126.096 222.317 126.291 221.972 126.378 221.603H127.559C127.374 222.341 127.029 222.944 126.524 223.41C126.019 223.877 125.348 224.11 124.512 224.11ZM126.407 219.46C126.407 218.829 126.232 218.304 125.883 217.886C125.533 217.458 125.062 217.245 124.469 217.245C123.905 217.245 123.439 217.449 123.069 217.857C122.7 218.265 122.496 218.799 122.457 219.46H126.407ZM132.495 224.095C131.902 224.095 131.367 223.94 130.891 223.629C130.415 223.308 130.041 222.852 129.769 222.259C129.497 221.656 129.361 220.962 129.361 220.174C129.361 219.387 129.497 218.697 129.769 218.105C130.041 217.502 130.415 217.045 130.891 216.734C131.367 216.414 131.902 216.253 132.495 216.253C133.039 216.253 133.491 216.36 133.85 216.574C134.219 216.788 134.506 217.07 134.71 217.42H134.754V213.469H135.92V223.891H134.754V222.973H134.71C134.487 223.303 134.19 223.576 133.821 223.789C133.452 223.993 133.01 224.095 132.495 224.095ZM130.585 220.174C130.585 220.68 130.663 221.156 130.818 221.603C130.974 222.04 131.207 222.395 131.518 222.667C131.839 222.939 132.218 223.075 132.655 223.075C133.287 223.075 133.792 222.813 134.171 222.288C134.56 221.763 134.754 221.059 134.754 220.174C134.754 219.29 134.56 218.586 134.171 218.061C133.792 217.536 133.287 217.274 132.655 217.274C132.218 217.274 131.839 217.41 131.518 217.682C131.207 217.954 130.974 218.314 130.818 218.761C130.663 219.198 130.585 219.669 130.585 220.174ZM149.931 224.095C149.202 224.095 148.57 223.867 148.036 223.41C147.511 222.944 147.113 222.303 146.841 221.486C146.569 220.67 146.433 219.732 146.433 218.673C146.433 217.624 146.569 216.691 146.841 215.874C147.123 215.058 147.526 214.422 148.051 213.965C148.585 213.499 149.222 213.265 149.96 213.265C150.893 213.265 151.636 213.605 152.19 214.286C152.744 214.956 153.07 215.831 153.167 216.909H151.797C151.68 216.132 151.481 215.525 151.199 215.087C150.917 214.65 150.49 214.431 149.916 214.431C149.158 214.431 148.614 214.835 148.284 215.641C147.963 216.448 147.803 217.458 147.803 218.673C147.803 219.897 147.963 220.913 148.284 221.719C148.614 222.526 149.163 222.929 149.931 222.929C151.048 222.929 151.67 221.996 151.797 220.131H153.167C153.079 221.326 152.759 222.288 152.205 223.017C151.651 223.736 150.893 224.095 149.931 224.095ZM157.228 224.095C156.499 224.095 155.926 223.901 155.508 223.512C155.09 223.114 154.881 222.57 154.881 221.88C154.881 221.375 154.998 220.966 155.231 220.655C155.464 220.335 155.79 220.087 156.208 219.912C156.635 219.737 157.184 219.587 157.855 219.46C158.35 219.363 158.715 219.28 158.948 219.212C159.191 219.144 159.38 219.042 159.516 218.906C159.652 218.761 159.72 218.566 159.72 218.323C159.72 217.614 159.196 217.259 158.146 217.259C157.524 217.259 157.092 217.386 156.849 217.638C156.606 217.881 156.47 218.255 156.441 218.761H155.231C155.26 217.993 155.527 217.381 156.033 216.924C156.538 216.467 157.267 216.239 158.219 216.239C159.026 216.239 159.667 216.428 160.143 216.807C160.629 217.177 160.872 217.789 160.872 218.644V222.375C160.872 222.648 160.906 222.837 160.974 222.944C161.052 223.041 161.188 223.09 161.382 223.09C161.47 223.09 161.557 223.08 161.645 223.061V223.877C161.46 223.935 161.217 223.964 160.916 223.964C160.576 223.964 160.304 223.877 160.099 223.702C159.905 223.527 159.788 223.226 159.75 222.798H159.72C159.468 223.197 159.128 223.512 158.7 223.746C158.273 223.979 157.782 224.095 157.228 224.095ZM156.106 221.909C156.106 222.298 156.212 222.589 156.426 222.784C156.64 222.978 156.995 223.075 157.49 223.075C158.151 223.075 158.686 222.905 159.094 222.565C159.512 222.225 159.72 221.715 159.72 221.034V219.825C159.575 219.961 159.405 220.063 159.21 220.131C159.016 220.199 158.627 220.296 158.044 220.422C157.539 220.539 157.15 220.655 156.878 220.772C156.616 220.879 156.421 221.02 156.295 221.195C156.169 221.37 156.106 221.608 156.106 221.909ZM163.592 216.457H164.758V217.376H164.802C165.025 217.045 165.317 216.778 165.676 216.574C166.046 216.36 166.493 216.253 167.017 216.253C167.61 216.253 168.145 216.414 168.621 216.734C169.097 217.045 169.471 217.497 169.743 218.09C170.015 218.683 170.151 219.378 170.151 220.174C170.151 220.971 170.015 221.666 169.743 222.259C169.471 222.852 169.097 223.308 168.621 223.629C168.145 223.94 167.61 224.095 167.017 224.095C166.007 224.095 165.268 223.707 164.802 222.929H164.758V226.471H163.592V216.457ZM164.773 220.174C164.773 221.049 164.962 221.754 165.341 222.288C165.72 222.813 166.225 223.075 166.857 223.075C167.518 223.075 168.028 222.793 168.388 222.23C168.747 221.656 168.927 220.971 168.927 220.174C168.927 219.368 168.747 218.683 168.388 218.119C168.028 217.556 167.518 217.274 166.857 217.274C166.225 217.274 165.72 217.541 165.341 218.075C164.962 218.6 164.773 219.3 164.773 220.174ZM175.364 224.095C174.314 224.095 173.503 223.848 172.93 223.352C172.366 222.856 172.07 222.21 172.041 221.413H173.236C173.265 221.909 173.454 222.312 173.804 222.623C174.154 222.924 174.669 223.075 175.349 223.075C175.942 223.075 176.379 222.958 176.661 222.725C176.943 222.482 177.084 222.191 177.084 221.851C177.084 221.559 177.016 221.336 176.88 221.18C176.744 221.025 176.545 220.908 176.282 220.83C176.03 220.743 175.612 220.636 175.029 220.51C174.416 220.383 173.926 220.252 173.556 220.116C173.187 219.97 172.886 219.757 172.653 219.475C172.42 219.193 172.303 218.814 172.303 218.338C172.303 217.706 172.541 217.201 173.017 216.822C173.503 216.443 174.174 216.253 175.029 216.253C175.971 216.253 176.695 216.472 177.201 216.909C177.706 217.337 177.988 217.896 178.046 218.586H176.851C176.666 217.711 176.059 217.274 175.029 217.274C174.553 217.274 174.183 217.366 173.921 217.551C173.659 217.735 173.527 217.983 173.527 218.294C173.527 218.527 173.591 218.712 173.717 218.848C173.843 218.984 174.038 219.096 174.3 219.183C174.572 219.271 174.985 219.373 175.539 219.489C176.122 219.616 176.603 219.757 176.982 219.912C177.371 220.058 177.686 220.286 177.929 220.597C178.182 220.898 178.308 221.302 178.308 221.807C178.308 222.507 178.046 223.065 177.521 223.483C177.006 223.891 176.287 224.095 175.364 224.095Z"></path>
<rect stroke-width="0.5" style="stroke:#B7B2A4;stroke:color(display-p3 0.7176 0.6980 0.6431);stroke-opacity:1;" stroke="#B7B2A4" rx="3.39406" height="39.2064" width="39.2078" y="111.474" x="1063.25"></rect>
<rect stroke-width="0.5" style="stroke:#B7B2A4;stroke:color(display-p3 0.7176 0.6980 0.6431);stroke-opacity:1;" stroke="#B7B2A4" rx="3.39406" height="39.2064" width="39.2078" y="111.474" x="1106.08"></rect>
<path style="fill:#B7B2A4;fill:color(display-p3 0.7176 0.6980 0.6431);fill-opacity:1;" fill="#B7B2A4" d="M1164.87 121.491C1164.11 121.491 1163.44 121.345 1162.86 121.053C1162.27 120.752 1161.81 120.325 1161.46 119.771C1161.12 119.217 1160.93 118.556 1160.9 117.788H1162.27C1162.33 118.556 1162.56 119.178 1162.96 119.654C1163.37 120.121 1163.99 120.354 1164.82 120.354C1166.12 120.354 1166.76 119.717 1166.76 118.444C1166.76 117.978 1166.67 117.623 1166.49 117.38C1166.3 117.128 1166.06 116.938 1165.76 116.812C1165.46 116.685 1164.93 116.515 1164.18 116.302C1163.58 116.127 1163.08 115.947 1162.68 115.762C1162.29 115.568 1161.96 115.286 1161.68 114.917C1161.4 114.538 1161.27 114.037 1161.27 113.415C1161.27 112.58 1161.54 111.914 1162.1 111.419C1162.65 110.913 1163.41 110.661 1164.37 110.661C1165.41 110.661 1166.24 110.957 1166.85 111.55C1167.46 112.133 1167.8 112.934 1167.87 113.955H1166.5C1166.42 113.236 1166.21 112.696 1165.87 112.337C1165.53 111.977 1165.04 111.797 1164.39 111.797C1163.81 111.797 1163.38 111.934 1163.08 112.206C1162.78 112.468 1162.64 112.852 1162.64 113.357C1162.64 113.756 1162.73 114.071 1162.9 114.305C1163.08 114.538 1163.3 114.718 1163.59 114.844C1163.88 114.97 1164.28 115.101 1164.78 115.237C1165.53 115.451 1166.13 115.66 1166.57 115.864C1167.02 116.059 1167.39 116.36 1167.68 116.768C1167.98 117.166 1168.13 117.711 1168.13 118.401C1168.13 119.314 1167.86 120.057 1167.3 120.631C1166.75 121.204 1165.94 121.491 1164.87 121.491ZM1169.94 113.853H1171.1V114.771H1171.15C1171.37 114.441 1171.66 114.173 1172.02 113.969C1172.39 113.756 1172.84 113.649 1173.36 113.649C1173.95 113.649 1174.49 113.809 1174.96 114.13C1175.44 114.441 1175.81 114.893 1176.09 115.485C1176.36 116.078 1176.49 116.773 1176.49 117.57C1176.49 118.367 1176.36 119.061 1176.09 119.654C1175.81 120.247 1175.44 120.704 1174.96 121.024C1174.49 121.335 1173.95 121.491 1173.36 121.491C1172.35 121.491 1171.61 121.102 1171.15 120.325H1171.1V123.867H1169.94V113.853ZM1171.12 117.57C1171.12 118.444 1171.31 119.149 1171.68 119.683C1172.06 120.208 1172.57 120.47 1173.2 120.47C1173.86 120.47 1174.37 120.189 1174.73 119.625C1175.09 119.052 1175.27 118.367 1175.27 117.57C1175.27 116.763 1175.09 116.078 1174.73 115.514C1174.37 114.951 1173.86 114.669 1173.2 114.669C1172.57 114.669 1172.06 114.936 1171.68 115.471C1171.31 115.995 1171.12 116.695 1171.12 117.57ZM1178.24 120.266H1180.86V111.885H1178.24V110.865H1182.03V120.266H1184.65V121.287H1178.24V120.266ZM1187.24 120.266H1189.57V114.873H1187.24V113.853H1190.74V120.266H1192.78V121.287H1187.24V120.266ZM1189.14 110.719H1190.86V112.41H1189.14V110.719ZM1199.78 121.36C1199.18 121.36 1198.69 121.301 1198.31 121.185C1197.94 121.068 1197.66 120.864 1197.47 120.572C1197.27 120.271 1197.18 119.844 1197.18 119.29V114.873H1194.7V113.853H1197.18V111.375H1198.34V113.853H1201.55V114.873H1198.34V119.348C1198.34 119.737 1198.46 119.999 1198.69 120.135C1198.92 120.271 1199.34 120.339 1199.93 120.339C1200.54 120.339 1201.08 120.325 1201.55 120.295V121.287C1201.14 121.335 1200.55 121.36 1199.78 121.36ZM1212.09 110.865H1215.69C1216.57 110.865 1217.25 111.098 1217.75 111.564C1218.24 112.031 1218.49 112.672 1218.49 113.488C1218.49 114.557 1218.04 115.276 1217.15 115.646V115.675C1217.63 115.782 1218.03 116.059 1218.34 116.506C1218.66 116.953 1218.82 117.536 1218.82 118.255C1218.82 119.207 1218.56 119.95 1218.04 120.485C1217.51 121.019 1216.8 121.287 1215.91 121.287H1212.09V110.865ZM1215.81 120.121C1216.4 120.121 1216.82 119.95 1217.08 119.61C1217.33 119.261 1217.45 118.809 1217.45 118.255C1217.45 117.691 1217.32 117.239 1217.06 116.899C1216.8 116.559 1216.44 116.389 1216 116.389H1213.4V120.121H1215.81ZM1215.66 115.223C1216.63 115.223 1217.12 114.693 1217.12 113.634C1217.12 113.148 1217 112.76 1216.75 112.468C1216.52 112.176 1216.19 112.031 1215.75 112.031H1213.4V115.223H1215.66ZM1222.71 121.491C1221.98 121.491 1221.41 121.296 1220.99 120.908C1220.57 120.509 1220.36 119.965 1220.36 119.275C1220.36 118.77 1220.48 118.362 1220.71 118.051C1220.95 117.73 1221.27 117.482 1221.69 117.307C1222.12 117.132 1222.67 116.982 1223.34 116.855C1223.83 116.758 1224.2 116.676 1224.43 116.608C1224.67 116.54 1224.86 116.438 1225 116.302C1225.14 116.156 1225.2 115.961 1225.2 115.719C1225.2 115.009 1224.68 114.654 1223.63 114.654C1223.01 114.654 1222.57 114.781 1222.33 115.033C1222.09 115.276 1221.95 115.65 1221.92 116.156H1220.71C1220.74 115.388 1221.01 114.776 1221.52 114.319C1222.02 113.862 1222.75 113.634 1223.7 113.634C1224.51 113.634 1225.15 113.824 1225.63 114.203C1226.11 114.572 1226.35 115.184 1226.35 116.039V119.771C1226.35 120.043 1226.39 120.232 1226.46 120.339C1226.53 120.436 1226.67 120.485 1226.86 120.485C1226.95 120.485 1227.04 120.475 1227.13 120.456V121.272C1226.94 121.33 1226.7 121.36 1226.4 121.36C1226.06 121.36 1225.79 121.272 1225.58 121.097C1225.39 120.922 1225.27 120.621 1225.23 120.193H1225.2C1224.95 120.592 1224.61 120.908 1224.18 121.141C1223.76 121.374 1223.26 121.491 1222.71 121.491ZM1221.59 119.304C1221.59 119.693 1221.7 119.984 1221.91 120.179C1222.12 120.373 1222.48 120.47 1222.97 120.47C1223.63 120.47 1224.17 120.3 1224.58 119.96C1224.99 119.62 1225.2 119.11 1225.2 118.43V117.22C1225.06 117.356 1224.89 117.458 1224.69 117.526C1224.5 117.594 1224.11 117.691 1223.53 117.817C1223.02 117.934 1222.63 118.051 1222.36 118.167C1222.1 118.274 1221.9 118.415 1221.78 118.59C1221.65 118.765 1221.59 119.003 1221.59 119.304ZM1232.31 121.491C1231.65 121.491 1231.06 121.325 1230.55 120.995C1230.04 120.665 1229.65 120.203 1229.37 119.61C1229.09 119.018 1228.96 118.337 1228.96 117.57C1228.96 116.802 1229.09 116.122 1229.37 115.529C1229.65 114.936 1230.04 114.475 1230.55 114.144C1231.06 113.814 1231.65 113.649 1232.31 113.649C1232.87 113.649 1233.37 113.775 1233.81 114.028C1234.26 114.271 1234.61 114.611 1234.88 115.048C1235.15 115.485 1235.31 115.981 1235.37 116.535H1234.15C1234.12 116.049 1233.95 115.616 1233.64 115.237C1233.34 114.859 1232.89 114.669 1232.31 114.669C1231.61 114.669 1231.08 114.956 1230.72 115.529C1230.36 116.102 1230.18 116.783 1230.18 117.57C1230.18 118.357 1230.36 119.037 1230.72 119.61C1231.08 120.184 1231.61 120.47 1232.31 120.47C1232.9 120.47 1233.35 120.281 1233.65 119.902C1233.95 119.513 1234.12 119.061 1234.15 118.546H1235.37C1235.34 119.1 1235.19 119.601 1234.92 120.048C1234.66 120.495 1234.3 120.849 1233.84 121.112C1233.38 121.364 1232.87 121.491 1232.31 121.491ZM1237.76 110.865H1238.92V117.191L1242.71 113.853H1244.11L1241.04 116.549L1244.49 121.287H1243.11L1240.23 117.249L1238.92 118.386V121.287H1237.76V110.865ZM1249.3 121.491C1248.25 121.491 1247.43 121.243 1246.86 120.747C1246.3 120.252 1246 119.605 1245.97 118.809H1247.17C1247.2 119.304 1247.39 119.708 1247.74 120.018C1248.09 120.32 1248.6 120.47 1249.28 120.47C1249.87 120.47 1250.31 120.354 1250.59 120.121C1250.87 119.878 1251.02 119.586 1251.02 119.246C1251.02 118.954 1250.95 118.731 1250.81 118.575C1250.68 118.42 1250.48 118.303 1250.21 118.226C1249.96 118.138 1249.54 118.031 1248.96 117.905C1248.35 117.779 1247.86 117.647 1247.49 117.511C1247.12 117.366 1246.82 117.152 1246.58 116.87C1246.35 116.588 1246.23 116.209 1246.23 115.733C1246.23 115.101 1246.47 114.596 1246.95 114.217C1247.43 113.838 1248.1 113.649 1248.96 113.649C1249.9 113.649 1250.63 113.867 1251.13 114.305C1251.64 114.732 1251.92 115.291 1251.98 115.981H1250.78C1250.6 115.106 1249.99 114.669 1248.96 114.669C1248.48 114.669 1248.11 114.761 1247.85 114.946C1247.59 115.131 1247.46 115.378 1247.46 115.689C1247.46 115.923 1247.52 116.107 1247.65 116.243C1247.77 116.379 1247.97 116.491 1248.23 116.578C1248.5 116.666 1248.92 116.768 1249.47 116.885C1250.05 117.011 1250.53 117.152 1250.91 117.307C1251.3 117.453 1251.62 117.681 1251.86 117.992C1252.11 118.294 1252.24 118.697 1252.24 119.202C1252.24 119.902 1251.98 120.461 1251.45 120.878C1250.94 121.287 1250.22 121.491 1249.3 121.491ZM1254.42 113.853H1255.59V114.771H1255.63C1255.85 114.441 1256.15 114.173 1256.5 113.969C1256.87 113.756 1257.32 113.649 1257.85 113.649C1258.44 113.649 1258.97 113.809 1259.45 114.13C1259.93 114.441 1260.3 114.893 1260.57 115.485C1260.84 116.078 1260.98 116.773 1260.98 117.57C1260.98 118.367 1260.84 119.061 1260.57 119.654C1260.3 120.247 1259.93 120.704 1259.45 121.024C1258.97 121.335 1258.44 121.491 1257.85 121.491C1256.84 121.491 1256.1 121.102 1255.63 120.325H1255.59V123.867H1254.42V113.853ZM1255.6 117.57C1255.6 118.444 1255.79 119.149 1256.17 119.683C1256.55 120.208 1257.05 120.47 1257.69 120.47C1258.35 120.47 1258.86 120.189 1259.22 119.625C1259.58 119.052 1259.76 118.367 1259.76 117.57C1259.76 116.763 1259.58 116.078 1259.22 115.514C1258.86 114.951 1258.35 114.669 1257.69 114.669C1257.05 114.669 1256.55 114.936 1256.17 115.471C1255.79 115.995 1255.6 116.695 1255.6 117.57ZM1264.95 121.491C1264.22 121.491 1263.65 121.296 1263.23 120.908C1262.82 120.509 1262.61 119.965 1262.61 119.275C1262.61 118.77 1262.72 118.362 1262.96 118.051C1263.19 117.73 1263.52 117.482 1263.93 117.307C1264.36 117.132 1264.91 116.982 1265.58 116.855C1266.08 116.758 1266.44 116.676 1266.67 116.608C1266.92 116.54 1267.11 116.438 1267.24 116.302C1267.38 116.156 1267.45 115.961 1267.45 115.719C1267.45 115.009 1266.92 114.654 1265.87 114.654C1265.25 114.654 1264.82 114.781 1264.57 115.033C1264.33 115.276 1264.2 115.65 1264.17 116.156H1262.96C1262.99 115.388 1263.25 114.776 1263.76 114.319C1264.26 113.862 1264.99 113.634 1265.94 113.634C1266.75 113.634 1267.39 113.824 1267.87 114.203C1268.35 114.572 1268.6 115.184 1268.6 116.039V119.771C1268.6 120.043 1268.63 120.232 1268.7 120.339C1268.78 120.436 1268.91 120.485 1269.11 120.485C1269.19 120.485 1269.28 120.475 1269.37 120.456V121.272C1269.19 121.33 1268.94 121.36 1268.64 121.36C1268.3 121.36 1268.03 121.272 1267.82 121.097C1267.63 120.922 1267.51 120.621 1267.47 120.193H1267.45C1267.19 120.592 1266.85 120.908 1266.43 121.141C1266 121.374 1265.51 121.491 1264.95 121.491ZM1263.83 119.304C1263.83 119.693 1263.94 119.984 1264.15 120.179C1264.37 120.373 1264.72 120.47 1265.22 120.47C1265.88 120.47 1266.41 120.3 1266.82 119.96C1267.24 119.62 1267.45 119.11 1267.45 118.43V117.22C1267.3 117.356 1267.13 117.458 1266.94 117.526C1266.74 117.594 1266.35 117.691 1265.77 117.817C1265.26 117.934 1264.88 118.051 1264.6 118.167C1264.34 118.274 1264.15 118.415 1264.02 118.59C1263.89 118.765 1263.83 119.003 1263.83 119.304ZM1274.55 121.491C1273.89 121.491 1273.3 121.325 1272.79 120.995C1272.28 120.665 1271.89 120.203 1271.61 119.61C1271.34 119.018 1271.2 118.337 1271.2 117.57C1271.2 116.802 1271.34 116.122 1271.61 115.529C1271.89 114.936 1272.28 114.475 1272.79 114.144C1273.3 113.814 1273.89 113.649 1274.55 113.649C1275.12 113.649 1275.62 113.775 1276.05 114.028C1276.5 114.271 1276.86 114.611 1277.12 115.048C1277.39 115.485 1277.56 115.981 1277.61 116.535H1276.39C1276.36 116.049 1276.19 115.616 1275.88 115.237C1275.58 114.859 1275.14 114.669 1274.55 114.669C1273.85 114.669 1273.32 114.956 1272.96 115.529C1272.6 116.102 1272.43 116.783 1272.43 117.57C1272.43 118.357 1272.6 119.037 1272.96 119.61C1273.32 120.184 1273.85 120.47 1274.55 120.47C1275.15 120.47 1275.59 120.281 1275.89 119.902C1276.2 119.513 1276.36 119.061 1276.39 118.546H1277.61C1277.59 119.1 1277.43 119.601 1277.16 120.048C1276.9 120.495 1276.54 120.849 1276.08 121.112C1275.63 121.364 1275.12 121.491 1274.55 121.491ZM1282.93 121.505C1282.25 121.505 1281.66 121.335 1281.17 120.995C1280.67 120.655 1280.29 120.189 1280.03 119.596C1279.78 118.993 1279.65 118.313 1279.65 117.555C1279.65 116.778 1279.78 116.093 1280.04 115.5C1280.31 114.907 1280.7 114.45 1281.19 114.13C1281.69 113.799 1282.27 113.634 1282.93 113.634C1283.91 113.634 1284.68 113.969 1285.23 114.64C1285.79 115.31 1286.06 116.195 1286.06 117.293C1286.06 117.604 1286.06 117.798 1286.05 117.876H1280.87C1280.88 118.323 1280.97 118.75 1281.12 119.158C1281.29 119.557 1281.52 119.882 1281.84 120.135C1282.15 120.378 1282.52 120.5 1282.96 120.5C1283.49 120.5 1283.91 120.344 1284.21 120.033C1284.51 119.712 1284.71 119.367 1284.79 118.998H1285.98C1285.79 119.737 1285.45 120.339 1284.94 120.806C1284.44 121.272 1283.76 121.505 1282.93 121.505ZM1284.82 116.855C1284.82 116.224 1284.65 115.699 1284.3 115.281C1283.95 114.854 1283.48 114.64 1282.89 114.64C1282.32 114.64 1281.86 114.844 1281.49 115.252C1281.12 115.66 1280.91 116.195 1280.87 116.855H1284.82Z"></path>
<rect stroke-width="0.5" style="stroke:#B7B2A4;stroke:color(display-p3 0.7176 0.6980 0.6431);stroke-opacity:1;" stroke="#B7B2A4" rx="3.39406" height="39.2064" width="39.2078" y="113.474" x="332.803"></rect>
<rect stroke-width="0.5" style="stroke:#B7B2A4;stroke:color(display-p3 0.7176 0.6980 0.6431);stroke-opacity:1;" stroke="#B7B2A4" rx="3.39406" height="39.2064" width="39.2078" y="113.474" x="375.482"></rect>
<rect stroke-width="0.5" style="stroke:#B7B2A4;stroke:color(display-p3 0.7176 0.6980 0.6431);stroke-opacity:1;" stroke="#B7B2A4" rx="3.39406" height="39.2064" width="39.2078" y="156.368" x="395.046"></rect>
<rect stroke-width="0.5" style="stroke:#B7B2A4;stroke:color(display-p3 0.7176 0.6980 0.6431);stroke-opacity:1;" stroke="#B7B2A4" rx="3.39406" height="39.2064" width="39.2078" y="199.261" x="405.964"></rect>
<rect stroke-width="0.5" style="stroke:#B7B2A4;stroke:color(display-p3 0.7176 0.6980 0.6431);stroke-opacity:1;" stroke="#B7B2A4" rx="3.39406" height="39.2064" width="39.2078" y="242.155" x="425.071"></rect>
<rect stroke-width="0.5" style="stroke:#B7B2A4;stroke:color(display-p3 0.7176 0.6980 0.6431);stroke-opacity:1;" stroke="#B7B2A4" rx="3.39406" height="39.2064" width="39.2078" y="156.368" x="437.873"></rect>
<rect stroke-width="0.5" style="stroke:#B7B2A4;stroke:color(display-p3 0.7176 0.6980 0.6431);stroke-opacity:1;" stroke="#B7B2A4" rx="3.39406" height="39.2064" width="39.2078" y="199.261" x="448.791"></rect>
<rect stroke-width="0.5" style="stroke:#B7B2A4;stroke:color(display-p3 0.7176 0.6980 0.6431);stroke-opacity:1;" stroke="#B7B2A4" rx="3.39406" height="39.2064" width="39.2078" y="242.155" x="467.898"></rect>
<rect stroke-width="0.5" style="stroke:#B7B2A4;stroke:color(display-p3 0.7176 0.6980 0.6431);stroke-opacity:1;" stroke="#B7B2A4" rx="3.39406" height="39.2064" width="39.2078" y="156.368" x="480.7"></rect>
<rect stroke-width="0.5" style="stroke:#B7B2A4;stroke:color(display-p3 0.7176 0.6980 0.6431);stroke-opacity:1;" stroke="#B7B2A4" rx="3.39406" height="39.2064" width="39.2078" y="199.261" x="491.618"></rect>
<rect stroke-width="0.5" style="stroke:#B7B2A4;stroke:color(display-p3 0.7176 0.6980 0.6431);stroke-opacity:1;" stroke="#B7B2A4" rx="3.39406" height="39.2064" width="39.2078" y="242.155" x="510.726"></rect>
<rect stroke-width="0.5" style="stroke:#B7B2A4;stroke:color(display-p3 0.7176 0.6980 0.6431);stroke-opacity:1;" stroke="#B7B2A4" rx="3.39406" height="39.2064" width="39.2078" y="156.368" x="523.527"></rect>
<rect stroke-width="0.5" style="stroke:#B7B2A4;stroke:color(display-p3 0.7176 0.6980 0.6431);stroke-opacity:1;" stroke="#B7B2A4" rx="3.39406" height="39.2064" width="39.2078" y="199.261" x="534.445"></rect>
<rect stroke-width="0.5" style="stroke:#B7B2A4;stroke:color(display-p3 0.7176 0.6980 0.6431);stroke-opacity:1;" stroke="#B7B2A4" rx="3.39406" height="39.2064" width="39.2078" y="242.155" x="553.553"></rect>
<rect stroke-width="0.5" style="stroke:#B7B2A4;stroke:color(display-p3 0.7176 0.6980 0.6431);stroke-opacity:1;" stroke="#B7B2A4" rx="3.39406" height="39.2064" width="39.2078" y="156.368" x="566.354"></rect>
<rect stroke-width="0.5" style="stroke:#B7B2A4;stroke:color(display-p3 0.7176 0.6980 0.6431);stroke-opacity:1;" stroke="#B7B2A4" rx="3.39406" height="39.2064" width="39.2078" y="199.261" x="577.272"></rect>
<rect stroke-width="0.5" style="stroke:#B7B2A4;stroke:color(display-p3 0.7176 0.6980 0.6431);stroke-opacity:1;" stroke="#B7B2A4" rx="3.39406" height="39.2064" width="39.2078" y="242.155" x="596.38"></rect>
<rect stroke-width="0.5" style="stroke:#B7B2A4;stroke:color(display-p3 0.7176 0.6980 0.6431);stroke-opacity:1;" stroke="#B7B2A4" rx="3.39406" height="39.2064" width="39.2078" y="156.368" x="609.182"></rect>
<rect stroke-width="0.5" style="stroke:#B7B2A4;stroke:color(display-p3 0.7176 0.6980 0.6431);stroke-opacity:1;" stroke="#B7B2A4" rx="3.39406" height="39.2064" width="39.2078" y="199.261" x="620.1"></rect>
<rect stroke-width="0.5" style="stroke:#B7B2A4;stroke:color(display-p3 0.7176 0.6980 0.6431);stroke-opacity:1;" stroke="#B7B2A4" rx="3.39406" height="39.2064" width="39.2078" y="242.155" x="639.207"></rect>
<rect stroke-width="0.5" style="stroke:#B7B2A4;stroke:color(display-p3 0.7176 0.6980 0.6431);stroke-opacity:1;" stroke="#B7B2A4" rx="3.39406" height="39.2064" width="39.2078" y="156.368" x="652.009"></rect>
<rect stroke-width="0.5" style="stroke:#B7B2A4;stroke:color(display-p3 0.7176 0.6980 0.6431);stroke-opacity:1;" stroke="#B7B2A4" rx="3.39406" height="39.2064" width="39.2078" y="199.261" x="662.927"></rect>
<rect stroke-width="0.5" style="stroke:#B7B2A4;stroke:color(display-p3 0.7176 0.6980 0.6431);stroke-opacity:1;" stroke="#B7B2A4" rx="3.39406" height="39.2064" width="39.2078" y="242.155" x="682.034"></rect>
<rect stroke-width="0.5" style="stroke:#B7B2A4;stroke:color(display-p3 0.7176 0.6980 0.6431);stroke-opacity:1;" stroke="#B7B2A4" rx="3.39406" height="39.2064" width="39.2078" y="156.368" x="694.836"></rect>
<rect stroke-width="0.5" style="stroke:#B7B2A4;stroke:color(display-p3 0.7176 0.6980 0.6431);stroke-opacity:1;" stroke="#B7B2A4" rx="3.39406" height="39.2064" width="39.2078" y="199.261" x="705.754"></rect>
<rect stroke-width="0.5" style="stroke:#B7B2A4;stroke:color(display-p3 0.7176 0.6980 0.6431);stroke-opacity:1;" stroke="#B7B2A4" rx="3.39406" height="39.2064" width="39.2078" y="242.155" x="724.861"></rect>
<rect stroke-width="0.5" style="stroke:#B7B2A4;stroke:color(display-p3 0.7176 0.6980 0.6431);stroke-opacity:1;" stroke="#B7B2A4" rx="3.39406" height="39.2064" width="39.2078" y="156.368" x="737.663"></rect>
<rect stroke-width="0.5" style="stroke:#B7B2A4;stroke:color(display-p3 0.7176 0.6980 0.6431);stroke-opacity:1;" stroke="#B7B2A4" rx="3.39406" height="39.2064" width="39.2078" y="199.261" x="748.581"></rect>
<rect stroke-width="0.5" style="stroke:#B7B2A4;stroke:color(display-p3 0.7176 0.6980 0.6431);stroke-opacity:1;" stroke="#B7B2A4" rx="3.39406" height="39.2064" width="39.2078" y="242.155" x="767.688"></rect>
<rect stroke-width="0.5" style="stroke:#B7B2A4;stroke:color(display-p3 0.7176 0.6980 0.6431);stroke-opacity:1;" stroke="#B7B2A4" rx="3.39406" height="39.2064" width="39.2078" y="156.368" x="780.49"></rect>
<rect stroke-width="0.5" style="stroke:#B7B2A4;stroke:color(display-p3 0.7176 0.6980 0.6431);stroke-opacity:1;" stroke="#B7B2A4" rx="3.39406" height="39.2064" width="39.2078" y="199.261" x="791.413"></rect>
<rect stroke-width="0.5" style="stroke:#B7B2A4;stroke:color(display-p3 0.7176 0.6980 0.6431);stroke-opacity:1;" stroke="#B7B2A4" rx="3.39406" height="39.2064" width="39.2078" y="242.155" x="810.516"></rect>
<rect stroke-width="0.5" style="stroke:#B7B2A4;stroke:color(display-p3 0.7176 0.6980 0.6431);stroke-opacity:1;" stroke="#B7B2A4" rx="3.39406" height="38.3699" width="69.9518" y="242.582" x="853.902"></rect>
<rect stroke-width="0.5" style="stroke:#B7B2A4;stroke:color(display-p3 0.7176 0.6980 0.6431);stroke-opacity:1;" stroke="#B7B2A4" rx="3.39406" height="39.2064" width="39.2078" y="156.368" x="823.317"></rect>
<rect stroke-width="0.5" style="stroke:#B7B2A4;stroke:color(display-p3 0.7176 0.6980 0.6431);stroke-opacity:1;" stroke="#B7B2A4" rx="3.39406" height="39.2064" width="39.2078" y="199.261" x="834.24"></rect>
<rect stroke-width="0.5" style="stroke:#B7B2A4;stroke:color(display-p3 0.7176 0.6980 0.6431);stroke-opacity:1;" stroke="#B7B2A4" rx="3.39406" height="39.5846" width="89.3867" y="198.853" x="876.981"></rect>
<rect stroke-width="0.5" style="stroke:#B7B2A4;stroke:color(display-p3 0.7176 0.6980 0.6431);stroke-opacity:1;" stroke="#B7B2A4" rx="3.39406" height="39.2064" width="39.2081" y="156.339" x="866.671"></rect>
<rect stroke-width="0.5" style="stroke:#B7B2A4;stroke:color(display-p3 0.7176 0.6980 0.6431);stroke-opacity:1;" stroke="#B7B2A4" rx="3.39406" height="39.5846" width="56.5902" y="156.339" x="909.778"></rect>
<rect stroke-width="0.5" style="stroke:#B7B2A4;stroke:color(display-p3 0.7176 0.6980 0.6431);stroke-opacity:1;" stroke="#B7B2A4" rx="3.39406" height="39.2064" width="39.2078" y="113.474" x="418.31"></rect>
<rect stroke-width="0.5" style="stroke:#B7B2A4;stroke:color(display-p3 0.7176 0.6980 0.6431);stroke-opacity:1;" stroke="#B7B2A4" rx="3.39406" height="39.2064" width="39.2078" y="113.474" x="461.137"></rect>
<rect stroke-width="0.5" style="stroke:#B7B2A4;stroke:color(display-p3 0.7176 0.6980 0.6431);stroke-opacity:1;" stroke="#B7B2A4" rx="3.39406" height="39.2064" width="39.2078" y="113.474" x="503.964"></rect>
<rect stroke-width="0.5" style="stroke:#B7B2A4;stroke:color(display-p3 0.7176 0.6980 0.6431);stroke-opacity:1;" stroke="#B7B2A4" rx="3.39406" height="39.2064" width="39.2078" y="113.474" x="546.791"></rect>
<rect stroke-width="0.5" style="stroke:#B7B2A4;stroke:color(display-p3 0.7176 0.6980 0.6431);stroke-opacity:1;" stroke="#B7B2A4" rx="3.39406" height="39.2064" width="39.2078" y="113.474" x="589.618"></rect>
<rect stroke-width="0.5" style="stroke:#B7B2A4;stroke:color(display-p3 0.7176 0.6980 0.6431);stroke-opacity:1;" stroke="#B7B2A4" rx="3.39406" height="39.2064" width="39.2078" y="113.474" x="632.445"></rect>
<rect stroke-width="0.5" style="stroke:#B7B2A4;stroke:color(display-p3 0.7176 0.6980 0.6431);stroke-opacity:1;" stroke="#B7B2A4" rx="3.39406" height="39.2064" width="39.2078" y="113.474" x="675.272"></rect>
<rect stroke-width="0.5" style="stroke:#B7B2A4;stroke:color(display-p3 0.7176 0.6980 0.6431);stroke-opacity:1;" stroke="#B7B2A4" rx="3.39406" height="39.2064" width="39.2078" y="113.474" x="718.1"></rect>
<rect stroke-width="0.5" style="stroke:#B7B2A4;stroke:color(display-p3 0.7176 0.6980 0.6431);stroke-opacity:1;" stroke="#B7B2A4" rx="3.39406" height="39.2064" width="39.2078" y="113.474" x="760.927"></rect>
<rect stroke-width="0.5" style="stroke:#B7B2A4;stroke:color(display-p3 0.7176 0.6980 0.6431);stroke-opacity:1;" stroke="#B7B2A4" rx="3.39406" height="39.2064" width="39.2078" y="113.474" x="803.754"></rect>
<rect stroke-width="0.5" style="stroke:#B7B2A4;stroke:color(display-p3 0.7176 0.6980 0.6431);stroke-opacity:1;" stroke="#B7B2A4" rx="3.39406" height="39.2064" width="39.2078" y="113.474" x="846.581"></rect>
<rect stroke-width="0.5" style="stroke:#B7B2A4;stroke:color(display-p3 0.7176 0.6980 0.6431);stroke-opacity:1;" stroke="#B7B2A4" rx="3.39406" height="38.3699" width="77.2399" y="113.825" x="889.129"></rect>
<rect stroke-width="0.5" style="stroke:#B7B2A4;stroke:color(display-p3 0.7176 0.6980 0.6431);stroke-opacity:1;" stroke="#B7B2A4" rx="3.39406" height="38.3699" width="39.2081" y="113.825" x="970.513"></rect>
<rect stroke-width="0.5" style="stroke:#B7B2A4;stroke:color(display-p3 0.7176 0.6980 0.6431);stroke-opacity:1;" stroke="#B7B2A4" rx="3.39406" height="39.5846" width="39.2081" y="156.339" x="970.513"></rect>
<rect stroke-width="0.5" style="stroke:#B7B2A4;stroke:color(display-p3 0.7176 0.6980 0.6431);stroke-opacity:1;" stroke="#B7B2A4" rx="3.39406" height="39.2741" width="58.7712" y="156.368" x="332.655"></rect>
<rect stroke-width="0.5" style="stroke:#B7B2A4;stroke:color(display-p3 0.7176 0.6980 0.6431);stroke-opacity:1;" stroke="#B7B2A4" rx="3.39406" height="39.2741" width="69.2997" y="199.261" x="333.044"></rect>
<rect stroke-width="0.5" style="stroke:#B7B2A4;stroke:color(display-p3 0.7176 0.6980 0.6431);stroke-opacity:1;" stroke="#B7B2A4" rx="3.39406" height="39.2741" width="88.4068" y="242.155" x="333.044"></rect>
<rect stroke-width="0.5" style="stroke:#B7B2A4;stroke:color(display-p3 0.7176 0.6980 0.6431);stroke-opacity:1;" stroke="#B7B2A4" rx="3.39406" height="39.5846" width="39.2081" y="198.853" x="970.513"></rect>
<rect stroke-width="0.5" style="stroke:#B7B2A4;stroke:color(display-p3 0.7176 0.6980 0.6431);stroke-opacity:1;" stroke="#B7B2A4" rx="3.39406" height="38.3699" width="39.2081" y="242.582" x="970.513"></rect>
<rect stroke-width="0.5" style="stroke:#B7B2A4;stroke:color(display-p3 0.7176 0.6980 0.6431);stroke-opacity:1;" stroke="#B7B2A4" rx="3.39406" height="39.2741" width="51.3623" y="285.438" x="806.824"></rect>
<rect stroke-width="0.5" style="stroke:#B7B2A4;stroke:color(display-p3 0.7176 0.6980 0.6431);stroke-opacity:1;" stroke="#B7B2A4" rx="3.39406" height="39.2741" width="50.9724" y="285.827" x="752.229"></rect>
<rect stroke-width="0.5" style="stroke:#B7B2A4;stroke:color(display-p3 0.7176 0.6980 0.6431);stroke-opacity:1;" stroke="#B7B2A4" rx="3.39406" height="39.2741" width="51.3623" y="285.827" x="442.229"></rect>
<rect stroke-width="0.5" style="stroke:#B7B2A4;stroke:color(display-p3 0.7176 0.6980 0.6431);stroke-opacity:1;" stroke="#B7B2A4" rx="3.39406" height="39.2741" width="50.9724" y="285.827" x="387.634"></rect>
<rect stroke-width="0.5" style="stroke:#B7B2A4;stroke:color(display-p3 0.7176 0.6980 0.6431);stroke-opacity:1;" stroke="#B7B2A4" rx="3.39406" height="39.2741" width="50.9724" y="285.049" x="332.655"></rect>
<rect stroke-width="0.5" style="stroke:#B7B2A4;stroke:color(display-p3 0.7176 0.6980 0.6431);stroke-opacity:1;" stroke="#B7B2A4" rx="3.39406" height="39.2741" width="251.403" y="286.216" x="497.212"></rect>
<rect stroke-width="0.5" style="stroke:#B7B2A4;stroke:color(display-p3 0.7176 0.6980 0.6431);stroke-opacity:1;" stroke="#B7B2A4" rx="3.39406" height="39.2064" width="39.2078" y="242.582" x="927.998"></rect>
<rect stroke-width="0.5" style="stroke:#B7B2A4;stroke:color(display-p3 0.7176 0.6980 0.6431);stroke-opacity:1;" stroke="#B7B2A4" rx="3.39406" height="39.2064" width="39.2078" y="284.982" x="927.619"></rect>
<rect stroke-width="0.5" style="stroke:#B7B2A4;stroke:color(display-p3 0.7176 0.6980 0.6431);stroke-opacity:1;" stroke="#B7B2A4" rx="3.39406" height="39.2064" width="39.2078" y="285.049" x="970.513"></rect>
<rect stroke-width="0.5" style="stroke:#B7B2A4;stroke:color(display-p3 0.7176 0.6980 0.6431);stroke-opacity:1;" stroke="#B7B2A4" rx="3.39406" height="39.2064" width="39.2078" y="285.049" x="884.27"></rect>
<path stroke-linejoin="round" stroke-linecap="round" stroke-miterlimit="10" stroke-width="0.5" style="stroke:#B7B2A4;stroke:color(display-p3 0.7176 0.6980 0.6431);stroke-opacity:1;" stroke="#B7B2A4" d="M329.753 283.881L329.753 324.892C329.753 326.369 330.988 327.604 332.465 327.604H859.829C861.074 327.604 862.04 326.56 862.04 325.32V286.236C862.04 285.627 862.574 285.167 863.182 285.167H880.939C881.547 285.167 882.08 285.627 882.08 286.236V325.32C882.08 326.56 883.125 327.604 884.365 327.604H1009.47C1010.94 327.604 1012.18 326.337 1012.18 324.86V283.881M329.753 283.881V113.561C329.753 112.084 331.021 110.849 332.498 110.849H1009.47C1010.96 110.849 1012.18 112.084 1012.18 113.561V283.881M329.753 283.881L307 283.881M1012.18 283.881L1034.93 283.881M307 283.881V332.266C307 332.642 307 333.014 307.005 333.343M307 283.881V247.792M307 283.881V81.5345M307 333.381V347.502L307.074 347.79V348.147L307.144 348.43V348.788L307.214 349.071L307.288 349.429L307.358 349.786L307.427 350.07L307.501 350.427L307.571 350.715L307.715 350.998L307.785 351.356L307.929 351.639L308.073 351.927L308.142 352.285L308.286 352.568L308.426 352.851L308.57 353.139L308.783 353.422L308.927 353.71L309.071 353.993L309.285 354.281L309.498 354.565L309.642 354.848L309.856 355.066L310.069 355.349L310.283 355.563L310.497 355.851L310.71 356.064L310.924 356.348L311.207 356.561L311.425 356.775L311.709 356.988L311.922 357.202L312.205 357.416L312.493 357.634L312.707 357.848L312.99 357.987L313.278 358.2L313.561 358.344L313.849 358.488L314.132 358.702L314.42 358.846L314.704 358.985L315.061 359.129L315.344 359.273L315.632 359.343L315.99 359.487L316.273 359.556L316.556 359.7L316.914 359.77L317.202 359.844L317.555 359.914L317.843 359.984L318.2 360.058L318.558 360.127L318.841 360.197H319.482L319.839 360.271H1022.09H1022.46L1023.09 360.197L1023.45 360.127L1023.73 360.058L1024.09 359.984L1024.37 359.914L1024.73 359.844L1025.01 359.77L1025.37 359.7L1025.66 359.556L1025.94 359.487L1026.3 359.343L1026.58 359.273L1026.87 359.129L1027.23 358.985L1027.51 358.846L1027.8 358.702L1028.08 358.488L1028.36 358.344L1028.65 358.2L1028.94 357.987L1029.22 357.848L1029.44 357.634L1029.72 357.416L1030.01 357.202L1030.22 356.988L1030.51 356.775L1030.93 356.348L1031.22 356.064L1031.43 355.851L1031.65 355.633L1032.08 355.066L1032.29 354.848L1032.43 354.565L1032.65 354.281L1032.79 353.993L1033 353.71L1033.15 353.422L1033.29 353.139L1033.5 352.851L1033.79 352.285L1033.86 351.997L1034 351.639L1034.15 351.356L1034.22 350.998L1034.36 350.715L1034.43 350.427L1034.5 350.07L1034.57 349.786L1034.64 349.429L1034.71 349.146L1034.79 348.788V348.43L1034.86 348.147V347.79L1034.93 347.502V283.881M307.042 346.712C307.042 346.716 307.042 346.721 307.042 346.726M1034.96 346.731C1034.96 346.722 1034.96 346.712 1034.96 346.703M1034.93 283.881V81.5345M1034.93 283.881C1034.93 283.9 1034.43 283.881 1033.83 283.881M1035 81.4977C1035 79.6263 1033.48 78.1125 1031.61 78.1125M1031.58 78.1822H310.353M310.39 78.1125C308.519 78.1125 307 79.6263 307 81.4977M307.074 283.848C307.07 283.867 307.566 283.881 308.175 283.881"></path>
</svg>
