<svg width="1321" height="467" viewBox="0 0 1321 467" fill="none" xmlns="http://www.w3.org/2000/svg">
<rect x="395.824" y="380.414" width="39.2078" height="39.2064" rx="3.39406" stroke="#B7B2A4" style="stroke:#B7B2A4;stroke:color(display-p3 0.7176 0.6980 0.6431);stroke-opacity:1;" stroke-width="0.5"/>
<rect x="1064.04" y="200.261" width="39.2078" height="39.2064" rx="3.39406" stroke="#B7B2A4" style="stroke:#B7B2A4;stroke:color(display-p3 0.7176 0.6980 0.6431);stroke-opacity:1;" stroke-width="0.5"/>
<path d="M1087.71 155.422H1142.74C1144.62 155.422 1146.14 156.942 1146.14 158.816V236.077C1146.14 237.952 1144.62 239.472 1142.74 239.472H1110.32C1108.45 239.472 1106.93 237.952 1106.93 236.077V201.091C1106.93 198.94 1105.19 197.196 1103.04 197.196H1087.71C1085.83 197.196 1084.31 195.677 1084.31 193.803V158.816C1084.31 156.942 1085.83 155.422 1087.71 155.422Z" stroke="#B7B2A4" style="stroke:#B7B2A4;stroke:color(display-p3 0.7176 0.6980 0.6431);stroke-opacity:1;" stroke-width="0.5"/>
<rect x="1063.04" y="111.474" width="39.2078" height="39.2064" rx="3.39406" stroke="#B7B2A4" style="stroke:#B7B2A4;stroke:color(display-p3 0.7176 0.6980 0.6431);stroke-opacity:1;" stroke-width="0.5"/>
<rect x="1105.87" y="111.474" width="39.2078" height="39.2064" rx="3.39406" stroke="#B7B2A4" style="stroke:#B7B2A4;stroke:color(display-p3 0.7176 0.6980 0.6431);stroke-opacity:1;" stroke-width="0.5"/>
<path d="M1164.66 121.491C1163.9 121.491 1163.23 121.345 1162.65 121.053C1162.07 120.752 1161.6 120.325 1161.25 119.771C1160.91 119.217 1160.73 118.556 1160.7 117.788H1162.07C1162.13 118.556 1162.35 119.178 1162.75 119.654C1163.16 120.121 1163.78 120.354 1164.62 120.354C1165.91 120.354 1166.56 119.717 1166.56 118.444C1166.56 117.978 1166.46 117.623 1166.28 117.38C1166.1 117.128 1165.85 116.938 1165.55 116.812C1165.25 116.685 1164.73 116.515 1163.98 116.302C1163.37 116.127 1162.87 115.947 1162.48 115.762C1162.09 115.568 1161.75 115.286 1161.47 114.917C1161.2 114.538 1161.06 114.037 1161.06 113.415C1161.06 112.58 1161.34 111.914 1161.89 111.419C1162.45 110.913 1163.2 110.661 1164.17 110.661C1165.21 110.661 1166.03 110.957 1166.64 111.55C1167.26 112.133 1167.6 112.934 1167.66 113.955H1166.29C1166.22 113.236 1166.01 112.696 1165.67 112.337C1165.33 111.977 1164.83 111.797 1164.18 111.797C1163.61 111.797 1163.17 111.934 1162.87 112.206C1162.58 112.468 1162.43 112.852 1162.43 113.357C1162.43 113.756 1162.52 114.071 1162.69 114.305C1162.87 114.538 1163.1 114.718 1163.38 114.844C1163.67 114.97 1164.07 115.101 1164.57 115.237C1165.32 115.451 1165.92 115.66 1166.37 115.864C1166.81 116.059 1167.18 116.36 1167.48 116.768C1167.78 117.166 1167.93 117.711 1167.93 118.401C1167.93 119.314 1167.65 120.057 1167.1 120.631C1166.54 121.204 1165.73 121.491 1164.66 121.491ZM1169.73 113.853H1170.9V114.771H1170.94C1171.16 114.441 1171.45 114.173 1171.81 113.969C1172.18 113.756 1172.63 113.649 1173.15 113.649C1173.75 113.649 1174.28 113.809 1174.76 114.13C1175.23 114.441 1175.61 114.893 1175.88 115.485C1176.15 116.078 1176.29 116.773 1176.29 117.57C1176.29 118.367 1176.15 119.061 1175.88 119.654C1175.61 120.247 1175.23 120.704 1174.76 121.024C1174.28 121.335 1173.75 121.491 1173.15 121.491C1172.14 121.491 1171.41 121.102 1170.94 120.325H1170.9V123.867H1169.73V113.853ZM1170.91 117.57C1170.91 118.444 1171.1 119.149 1171.48 119.683C1171.86 120.208 1172.36 120.47 1172.99 120.47C1173.65 120.47 1174.17 120.189 1174.52 119.625C1174.88 119.052 1175.06 118.367 1175.06 117.57C1175.06 116.763 1174.88 116.078 1174.52 115.514C1174.17 114.951 1173.65 114.669 1172.99 114.669C1172.36 114.669 1171.86 114.936 1171.48 115.471C1171.1 115.995 1170.91 116.695 1170.91 117.57ZM1178.03 120.266H1180.66V111.885H1178.03V110.865H1181.82V120.266H1184.45V121.287H1178.03V120.266ZM1187.03 120.266H1189.37V114.873H1187.03V113.853H1190.53V120.266H1192.57V121.287H1187.03V120.266ZM1188.93 110.719H1190.65V112.41H1188.93V110.719ZM1199.58 121.36C1198.98 121.36 1198.49 121.301 1198.11 121.185C1197.74 121.068 1197.46 120.864 1197.26 120.572C1197.07 120.271 1196.97 119.844 1196.97 119.29V114.873H1194.49V113.853H1196.97V111.375H1198.14V113.853H1201.34V114.873H1198.14V119.348C1198.14 119.737 1198.25 119.999 1198.49 120.135C1198.72 120.271 1199.13 120.339 1199.72 120.339C1200.34 120.339 1200.88 120.325 1201.34 120.295V121.287C1200.93 121.335 1200.35 121.36 1199.58 121.36ZM1211.88 110.865H1215.48C1216.36 110.865 1217.04 111.098 1217.54 111.564C1218.04 112.031 1218.28 112.672 1218.28 113.488C1218.28 114.557 1217.84 115.276 1216.94 115.646V115.675C1217.43 115.782 1217.83 116.059 1218.14 116.506C1218.46 116.953 1218.62 117.536 1218.62 118.255C1218.62 119.207 1218.36 119.95 1217.83 120.485C1217.31 121.019 1216.6 121.287 1215.7 121.287H1211.88V110.865ZM1215.6 120.121C1216.19 120.121 1216.62 119.95 1216.87 119.61C1217.12 119.261 1217.25 118.809 1217.25 118.255C1217.25 117.691 1217.12 117.239 1216.85 116.899C1216.59 116.559 1216.24 116.389 1215.79 116.389H1213.2V120.121H1215.6ZM1215.46 115.223C1216.43 115.223 1216.91 114.693 1216.91 113.634C1216.91 113.148 1216.79 112.76 1216.55 112.468C1216.32 112.176 1215.98 112.031 1215.54 112.031H1213.2V115.223H1215.46ZM1222.5 121.491C1221.78 121.491 1221.2 121.296 1220.78 120.908C1220.37 120.509 1220.16 119.965 1220.16 119.275C1220.16 118.77 1220.27 118.362 1220.51 118.051C1220.74 117.73 1221.07 117.482 1221.48 117.307C1221.91 117.132 1222.46 116.982 1223.13 116.855C1223.63 116.758 1223.99 116.676 1224.22 116.608C1224.47 116.54 1224.66 116.438 1224.79 116.302C1224.93 116.156 1225 115.961 1225 115.719C1225 115.009 1224.47 114.654 1223.42 114.654C1222.8 114.654 1222.37 114.781 1222.13 115.033C1221.88 115.276 1221.75 115.65 1221.72 116.156H1220.51C1220.54 115.388 1220.8 114.776 1221.31 114.319C1221.81 113.862 1222.54 113.634 1223.5 113.634C1224.3 113.634 1224.94 113.824 1225.42 114.203C1225.91 114.572 1226.15 115.184 1226.15 116.039V119.771C1226.15 120.043 1226.18 120.232 1226.25 120.339C1226.33 120.436 1226.46 120.485 1226.66 120.485C1226.75 120.485 1226.83 120.475 1226.92 120.456V121.272C1226.74 121.33 1226.49 121.36 1226.19 121.36C1225.85 121.36 1225.58 121.272 1225.38 121.097C1225.18 120.922 1225.07 120.621 1225.03 120.193H1225C1224.74 120.592 1224.4 120.908 1223.98 121.141C1223.55 121.374 1223.06 121.491 1222.5 121.491ZM1221.38 119.304C1221.38 119.693 1221.49 119.984 1221.7 120.179C1221.92 120.373 1222.27 120.47 1222.77 120.47C1223.43 120.47 1223.96 120.3 1224.37 119.96C1224.79 119.62 1225 119.11 1225 118.43V117.22C1224.85 117.356 1224.68 117.458 1224.49 117.526C1224.29 117.594 1223.9 117.691 1223.32 117.817C1222.82 117.934 1222.43 118.051 1222.15 118.167C1221.89 118.274 1221.7 118.415 1221.57 118.59C1221.45 118.765 1221.38 119.003 1221.38 119.304ZM1232.1 121.491C1231.44 121.491 1230.86 121.325 1230.34 120.995C1229.84 120.665 1229.44 120.203 1229.16 119.61C1228.89 119.018 1228.75 118.337 1228.75 117.57C1228.75 116.802 1228.89 116.122 1229.16 115.529C1229.44 114.936 1229.84 114.475 1230.34 114.144C1230.86 113.814 1231.44 113.649 1232.1 113.649C1232.67 113.649 1233.17 113.775 1233.61 114.028C1234.05 114.271 1234.41 114.611 1234.67 115.048C1234.94 115.485 1235.11 115.981 1235.17 116.535H1233.94C1233.91 116.049 1233.74 115.616 1233.43 115.237C1233.13 114.859 1232.69 114.669 1232.1 114.669C1231.41 114.669 1230.88 114.956 1230.52 115.529C1230.16 116.102 1229.98 116.783 1229.98 117.57C1229.98 118.357 1230.16 119.037 1230.52 119.61C1230.88 120.184 1231.41 120.47 1232.1 120.47C1232.7 120.47 1233.14 120.281 1233.45 119.902C1233.75 119.513 1233.91 119.061 1233.94 118.546H1235.17C1235.14 119.1 1234.99 119.601 1234.71 120.048C1234.45 120.495 1234.09 120.849 1233.64 121.112C1233.18 121.364 1232.67 121.491 1232.1 121.491ZM1237.55 110.865H1238.72V117.191L1242.51 113.853H1243.91L1240.83 116.549L1244.28 121.287H1242.9L1240.03 117.249L1238.72 118.386V121.287H1237.55V110.865ZM1249.09 121.491C1248.04 121.491 1247.23 121.243 1246.65 120.747C1246.09 120.252 1245.79 119.605 1245.77 118.809H1246.96C1246.99 119.304 1247.18 119.708 1247.53 120.018C1247.88 120.32 1248.39 120.47 1249.07 120.47C1249.67 120.47 1250.1 120.354 1250.39 120.121C1250.67 119.878 1250.81 119.586 1250.81 119.246C1250.81 118.954 1250.74 118.731 1250.61 118.575C1250.47 118.42 1250.27 118.303 1250.01 118.226C1249.75 118.138 1249.34 118.031 1248.75 117.905C1248.14 117.779 1247.65 117.647 1247.28 117.511C1246.91 117.366 1246.61 117.152 1246.38 116.87C1246.14 116.588 1246.03 116.209 1246.03 115.733C1246.03 115.101 1246.27 114.596 1246.74 114.217C1247.23 113.838 1247.9 113.649 1248.75 113.649C1249.7 113.649 1250.42 113.867 1250.93 114.305C1251.43 114.732 1251.71 115.291 1251.77 115.981H1250.58C1250.39 115.106 1249.78 114.669 1248.75 114.669C1248.28 114.669 1247.91 114.761 1247.65 114.946C1247.38 115.131 1247.25 115.378 1247.25 115.689C1247.25 115.923 1247.32 116.107 1247.44 116.243C1247.57 116.379 1247.76 116.491 1248.03 116.578C1248.3 116.666 1248.71 116.768 1249.26 116.885C1249.85 117.011 1250.33 117.152 1250.71 117.307C1251.1 117.453 1251.41 117.681 1251.65 117.992C1251.91 118.294 1252.03 118.697 1252.03 119.202C1252.03 119.902 1251.77 120.461 1251.25 120.878C1250.73 121.287 1250.01 121.491 1249.09 121.491ZM1254.21 113.853H1255.38V114.771H1255.42C1255.65 114.441 1255.94 114.173 1256.3 113.969C1256.67 113.756 1257.11 113.649 1257.64 113.649C1258.23 113.649 1258.77 113.809 1259.24 114.13C1259.72 114.441 1260.09 114.893 1260.37 115.485C1260.64 116.078 1260.77 116.773 1260.77 117.57C1260.77 118.367 1260.64 119.061 1260.37 119.654C1260.09 120.247 1259.72 120.704 1259.24 121.024C1258.77 121.335 1258.23 121.491 1257.64 121.491C1256.63 121.491 1255.89 121.102 1255.42 120.325H1255.38V123.867H1254.21V113.853ZM1255.39 117.57C1255.39 118.444 1255.58 119.149 1255.96 119.683C1256.34 120.208 1256.85 120.47 1257.48 120.47C1258.14 120.47 1258.65 120.189 1259.01 119.625C1259.37 119.052 1259.55 118.367 1259.55 117.57C1259.55 116.763 1259.37 116.078 1259.01 115.514C1258.65 114.951 1258.14 114.669 1257.48 114.669C1256.85 114.669 1256.34 114.936 1255.96 115.471C1255.58 115.995 1255.39 116.695 1255.39 117.57ZM1264.75 121.491C1264.02 121.491 1263.45 121.296 1263.03 120.908C1262.61 120.509 1262.4 119.965 1262.4 119.275C1262.4 118.77 1262.52 118.362 1262.75 118.051C1262.98 117.73 1263.31 117.482 1263.73 117.307C1264.15 117.132 1264.7 116.982 1265.37 116.855C1265.87 116.758 1266.23 116.676 1266.47 116.608C1266.71 116.54 1266.9 116.438 1267.04 116.302C1267.17 116.156 1267.24 115.961 1267.24 115.719C1267.24 115.009 1266.72 114.654 1265.67 114.654C1265.04 114.654 1264.61 114.781 1264.37 115.033C1264.13 115.276 1263.99 115.65 1263.96 116.156H1262.75C1262.78 115.388 1263.05 114.776 1263.55 114.319C1264.06 113.862 1264.79 113.634 1265.74 113.634C1266.54 113.634 1267.19 113.824 1267.66 114.203C1268.15 114.572 1268.39 115.184 1268.39 116.039V119.771C1268.39 120.043 1268.43 120.232 1268.49 120.339C1268.57 120.436 1268.71 120.485 1268.9 120.485C1268.99 120.485 1269.08 120.475 1269.16 120.456V121.272C1268.98 121.33 1268.74 121.36 1268.44 121.36C1268.09 121.36 1267.82 121.272 1267.62 121.097C1267.42 120.922 1267.31 120.621 1267.27 120.193H1267.24C1266.99 120.592 1266.65 120.908 1266.22 121.141C1265.79 121.374 1265.3 121.491 1264.75 121.491ZM1263.62 119.304C1263.62 119.693 1263.73 119.984 1263.95 120.179C1264.16 120.373 1264.51 120.47 1265.01 120.47C1265.67 120.47 1266.2 120.3 1266.61 119.96C1267.03 119.62 1267.24 119.11 1267.24 118.43V117.22C1267.09 117.356 1266.92 117.458 1266.73 117.526C1266.54 117.594 1266.15 117.691 1265.56 117.817C1265.06 117.934 1264.67 118.051 1264.4 118.167C1264.14 118.274 1263.94 118.415 1263.81 118.59C1263.69 118.765 1263.62 119.003 1263.62 119.304ZM1274.35 121.491C1273.69 121.491 1273.1 121.325 1272.58 120.995C1272.08 120.665 1271.68 120.203 1271.4 119.61C1271.13 119.018 1270.99 118.337 1270.99 117.57C1270.99 116.802 1271.13 116.122 1271.4 115.529C1271.68 114.936 1272.08 114.475 1272.58 114.144C1273.1 113.814 1273.69 113.649 1274.35 113.649C1274.91 113.649 1275.41 113.775 1275.85 114.028C1276.3 114.271 1276.65 114.611 1276.91 115.048C1277.18 115.485 1277.35 115.981 1277.41 116.535H1276.18C1276.15 116.049 1275.98 115.616 1275.67 115.237C1275.37 114.859 1274.93 114.669 1274.35 114.669C1273.65 114.669 1273.12 114.956 1272.76 115.529C1272.4 116.102 1272.22 116.783 1272.22 117.57C1272.22 118.357 1272.4 119.037 1272.76 119.61C1273.12 120.184 1273.65 120.47 1274.35 120.47C1274.94 120.47 1275.39 120.281 1275.69 119.902C1275.99 119.513 1276.15 119.061 1276.18 118.546H1277.41C1277.38 119.1 1277.23 119.601 1276.96 120.048C1276.69 120.495 1276.33 120.849 1275.88 121.112C1275.42 121.364 1274.91 121.491 1274.35 121.491ZM1282.72 121.505C1282.04 121.505 1281.45 121.335 1280.96 120.995C1280.46 120.655 1280.08 120.189 1279.82 119.596C1279.57 118.993 1279.44 118.313 1279.44 117.555C1279.44 116.778 1279.57 116.093 1279.84 115.5C1280.11 114.907 1280.49 114.45 1280.99 114.13C1281.48 113.799 1282.06 113.634 1282.72 113.634C1283.7 113.634 1284.47 113.969 1285.03 114.64C1285.58 115.31 1285.86 116.195 1285.86 117.293C1285.86 117.604 1285.85 117.798 1285.84 117.876H1280.67C1280.68 118.323 1280.76 118.75 1280.92 119.158C1281.08 119.557 1281.32 119.882 1281.63 120.135C1281.94 120.378 1282.31 120.5 1282.75 120.5C1283.29 120.5 1283.7 120.344 1284.01 120.033C1284.31 119.712 1284.5 119.367 1284.59 118.998H1285.77C1285.58 119.737 1285.24 120.339 1284.73 120.806C1284.23 121.272 1283.56 121.505 1282.72 121.505ZM1284.62 116.855C1284.62 116.224 1284.44 115.699 1284.09 115.281C1283.74 114.854 1283.27 114.64 1282.68 114.64C1282.12 114.64 1281.65 114.844 1281.28 115.252C1280.91 115.66 1280.71 116.195 1280.67 116.855H1284.62Z" fill="#B7B2A4" style="fill:#B7B2A4;fill:color(display-p3 0.7176 0.6980 0.6431);fill-opacity:1;"/>
<path d="M1162.19 221.51H1164.67V213.42H1162.19V212.254H1168.49V213.42H1165.98V221.51H1168.49V222.676H1162.19V221.51ZM1174.11 222.88C1173.35 222.88 1172.68 222.735 1172.1 222.443C1171.52 222.142 1171.05 221.714 1170.7 221.16C1170.36 220.606 1170.18 219.946 1170.15 219.178H1171.52C1171.57 219.946 1171.8 220.568 1172.2 221.044C1172.61 221.51 1173.23 221.743 1174.07 221.743C1175.36 221.743 1176.01 221.107 1176.01 219.834C1176.01 219.367 1175.91 219.013 1175.73 218.77C1175.54 218.517 1175.3 218.328 1175 218.201C1174.7 218.075 1174.17 217.905 1173.43 217.691C1172.82 217.516 1172.32 217.337 1171.92 217.152C1171.54 216.958 1171.2 216.676 1170.92 216.306C1170.65 215.927 1170.51 215.427 1170.51 214.805C1170.51 213.969 1170.79 213.304 1171.34 212.808C1171.9 212.303 1172.65 212.05 1173.62 212.05C1174.65 212.05 1175.48 212.347 1176.09 212.939C1176.71 213.522 1177.05 214.324 1177.11 215.344H1175.74C1175.67 214.625 1175.46 214.086 1175.12 213.726C1174.78 213.367 1174.28 213.187 1173.63 213.187C1173.06 213.187 1172.62 213.323 1172.32 213.595C1172.03 213.858 1171.88 214.241 1171.88 214.747C1171.88 215.145 1171.97 215.461 1172.14 215.694C1172.32 215.927 1172.55 216.107 1172.83 216.234C1173.12 216.36 1173.52 216.491 1174.02 216.627C1174.77 216.841 1175.37 217.05 1175.82 217.254C1176.26 217.448 1176.63 217.75 1176.92 218.158C1177.23 218.556 1177.38 219.1 1177.38 219.79C1177.38 220.704 1177.1 221.447 1176.55 222.02C1175.99 222.594 1175.18 222.88 1174.11 222.88ZM1182.25 222.88C1181.5 222.88 1180.86 222.667 1180.31 222.239C1179.77 221.802 1179.35 221.18 1179.06 220.373C1178.77 219.557 1178.62 218.585 1178.62 217.458C1178.62 216.331 1178.77 215.364 1179.06 214.557C1179.35 213.741 1179.77 213.119 1180.31 212.692C1180.86 212.264 1181.5 212.05 1182.25 212.05C1182.99 212.05 1183.63 212.264 1184.16 212.692C1184.71 213.119 1185.12 213.741 1185.42 214.557C1185.71 215.364 1185.85 216.331 1185.85 217.458C1185.85 218.585 1185.71 219.557 1185.42 220.373C1185.12 221.18 1184.71 221.802 1184.16 222.239C1183.63 222.667 1182.99 222.88 1182.25 222.88ZM1179.99 217.458C1179.99 218.799 1180.17 219.844 1180.53 220.592C1180.89 221.34 1181.47 221.714 1182.25 221.714C1183.74 221.714 1184.48 220.295 1184.48 217.458C1184.48 214.63 1183.74 213.216 1182.25 213.216C1180.75 213.216 1179.99 214.63 1179.99 217.458ZM1196.13 212.254H1202.5V213.42H1197.44V216.7H1201.89V217.866H1197.44V221.51H1202.65V222.676H1196.13V212.254ZM1204.58 215.242H1205.75V216.146H1205.78C1206.02 215.835 1206.35 215.573 1206.75 215.359C1207.17 215.145 1207.68 215.038 1208.27 215.038C1208.98 215.038 1209.56 215.247 1210.02 215.665C1210.48 216.073 1210.7 216.681 1210.7 217.487V222.676H1209.54V217.779C1209.54 217.254 1209.41 216.836 1209.14 216.525C1208.89 216.214 1208.49 216.059 1207.93 216.059C1207.28 216.059 1206.75 216.243 1206.35 216.613C1205.95 216.982 1205.75 217.458 1205.75 218.041V222.676H1204.58V215.242ZM1217.48 222.749C1216.87 222.749 1216.38 222.691 1216 222.574C1215.63 222.458 1215.35 222.254 1215.16 221.962C1214.96 221.661 1214.87 221.233 1214.87 220.679V216.263H1212.39V215.242H1214.87V212.764H1216.03V215.242H1219.24V216.263H1216.03V220.738C1216.03 221.126 1216.15 221.389 1216.38 221.525C1216.62 221.661 1217.03 221.729 1217.62 221.729C1218.23 221.729 1218.77 221.714 1219.24 221.685V222.676C1218.83 222.725 1218.24 222.749 1217.48 222.749ZM1224.58 222.895C1223.9 222.895 1223.32 222.725 1222.82 222.385C1222.32 222.045 1221.94 221.578 1221.68 220.985C1221.43 220.383 1221.3 219.703 1221.3 218.945C1221.3 218.167 1221.43 217.482 1221.7 216.89C1221.97 216.297 1222.35 215.84 1222.85 215.519C1223.34 215.189 1223.92 215.024 1224.58 215.024C1225.56 215.024 1226.33 215.359 1226.89 216.03C1227.44 216.7 1227.72 217.584 1227.72 218.682C1227.72 218.993 1227.71 219.188 1227.7 219.265H1222.53C1222.54 219.712 1222.62 220.14 1222.78 220.548C1222.94 220.947 1223.18 221.272 1223.49 221.525C1223.8 221.768 1224.18 221.889 1224.61 221.889C1225.15 221.889 1225.56 221.734 1225.87 221.423C1226.17 221.102 1226.36 220.757 1226.45 220.388H1227.63C1227.45 221.126 1227.1 221.729 1226.59 222.195C1226.09 222.662 1225.42 222.895 1224.58 222.895ZM1226.48 218.245C1226.48 217.613 1226.3 217.089 1225.95 216.671C1225.6 216.243 1225.13 216.03 1224.54 216.03C1223.98 216.03 1223.51 216.234 1223.14 216.642C1222.77 217.05 1222.57 217.584 1222.53 218.245H1226.48ZM1232.7 221.656H1235.32V222.676H1229.78V221.656H1231.53V216.263H1229.78V215.242H1232.7V216.715H1232.74C1232.96 216.219 1233.34 215.816 1233.86 215.505C1234.39 215.194 1234.96 215.038 1235.57 215.038C1235.89 215.038 1236.19 215.053 1236.49 215.082V216.248C1236.27 216.219 1235.97 216.204 1235.57 216.204C1235.1 216.204 1234.64 216.316 1234.2 216.54C1233.76 216.763 1233.4 217.069 1233.12 217.458C1232.84 217.837 1232.7 218.255 1232.7 218.712V221.656Z" fill="#B7B2A4" style="fill:#B7B2A4;fill:color(display-p3 0.7176 0.6980 0.6431);fill-opacity:1;"/>
<rect x="332.655" y="380.414" width="58.7712" height="39.2741" rx="3.39406" stroke="#B7B2A4" style="stroke:#B7B2A4;stroke:color(display-p3 0.7176 0.6980 0.6431);stroke-opacity:1;" stroke-width="0.5"/>
<rect x="797.4" y="380.414" width="58.7712" height="39.2741" rx="3.39406" stroke="#B7B2A4" style="stroke:#B7B2A4;stroke:color(display-p3 0.7176 0.6980 0.6431);stroke-opacity:1;" stroke-width="0.5"/>
<rect x="439.434" y="380.414" width="58.7712" height="39.2741" rx="3.39406" stroke="#B7B2A4" style="stroke:#B7B2A4;stroke:color(display-p3 0.7176 0.6980 0.6431);stroke-opacity:1;" stroke-width="0.5"/>
<rect x="502.603" y="380.414" width="290.397" height="39.2741" rx="3.39406" stroke="#B7B2A4" style="stroke:#B7B2A4;stroke:color(display-p3 0.7176 0.6980 0.6431);stroke-opacity:1;" stroke-width="0.5"/>
<path d="M334.783 443.749C334.783 442.632 334.948 441.49 335.278 440.324C335.619 439.148 336.09 438.079 336.692 437.117C337.305 436.145 337.995 435.397 338.762 434.872V434.843H333.515V433.677H340.249V434.697C339.336 435.309 338.573 436.116 337.961 437.117C337.348 438.108 336.892 439.182 336.59 440.338C336.299 441.485 336.153 442.622 336.153 443.749H334.783ZM347.211 442.845H347.182C346.939 443.156 346.608 443.419 346.19 443.632C345.782 443.846 345.282 443.953 344.689 443.953C343.98 443.953 343.397 443.749 342.94 443.341C342.483 442.923 342.255 442.311 342.255 441.504V436.315H343.421V441.213C343.421 441.738 343.547 442.155 343.8 442.466C344.062 442.777 344.47 442.933 345.024 442.933C345.675 442.933 346.2 442.748 346.599 442.379C347.007 442.01 347.211 441.533 347.211 440.95V436.315H348.377V443.749H347.211V442.845ZM362.592 443.953C361.834 443.953 361.163 443.807 360.58 443.516C359.997 443.215 359.531 442.787 359.181 442.233C358.841 441.679 358.656 441.018 358.627 440.251H359.997C360.056 441.018 360.284 441.64 360.682 442.116C361.09 442.583 361.712 442.816 362.548 442.816C363.841 442.816 364.487 442.18 364.487 440.907C364.487 440.44 364.394 440.086 364.21 439.843C364.025 439.59 363.782 439.4 363.481 439.274C363.18 439.148 362.655 438.978 361.907 438.764C361.304 438.589 360.804 438.409 360.405 438.225C360.017 438.03 359.681 437.748 359.4 437.379C359.128 437 358.992 436.5 358.992 435.878C358.992 435.042 359.268 434.377 359.822 433.881C360.376 433.376 361.134 433.123 362.096 433.123C363.136 433.123 363.962 433.419 364.574 434.012C365.186 434.595 365.527 435.397 365.595 436.417H364.224C364.147 435.698 363.938 435.159 363.598 434.799C363.257 434.44 362.762 434.26 362.111 434.26C361.537 434.26 361.1 434.396 360.799 434.668C360.507 434.93 360.362 435.314 360.362 435.82C360.362 436.218 360.449 436.534 360.624 436.767C360.799 437 361.027 437.18 361.309 437.306C361.601 437.433 361.999 437.564 362.504 437.7C363.253 437.914 363.85 438.123 364.297 438.327C364.744 438.521 365.114 438.822 365.405 439.23C365.706 439.629 365.857 440.173 365.857 440.863C365.857 441.776 365.58 442.52 365.026 443.093C364.472 443.666 363.661 443.953 362.592 443.953ZM367.659 436.315H368.825V437.233H368.868C369.092 436.903 369.384 436.636 369.743 436.432C370.112 436.218 370.559 436.111 371.084 436.111C371.677 436.111 372.211 436.271 372.687 436.592C373.164 436.903 373.538 437.355 373.81 437.948C374.082 438.54 374.218 439.235 374.218 440.032C374.218 440.829 374.082 441.524 373.81 442.116C373.538 442.709 373.164 443.166 372.687 443.487C372.211 443.798 371.677 443.953 371.084 443.953C370.073 443.953 369.335 443.564 368.868 442.787H368.825V446.329H367.659V436.315ZM368.839 440.032C368.839 440.907 369.029 441.611 369.408 442.146C369.787 442.67 370.292 442.933 370.924 442.933C371.585 442.933 372.095 442.651 372.454 442.087C372.814 441.514 372.994 440.829 372.994 440.032C372.994 439.226 372.814 438.54 372.454 437.977C372.095 437.413 371.585 437.131 370.924 437.131C370.292 437.131 369.787 437.399 369.408 437.933C369.029 438.458 368.839 439.158 368.839 440.032ZM378.192 443.953C377.463 443.953 376.889 443.759 376.472 443.37C376.054 442.972 375.845 442.427 375.845 441.738C375.845 441.232 375.961 440.824 376.195 440.513C376.428 440.192 376.753 439.945 377.171 439.77C377.599 439.595 378.148 439.444 378.818 439.318C379.314 439.221 379.678 439.138 379.912 439.07C380.155 439.002 380.344 438.9 380.48 438.764C380.616 438.618 380.684 438.424 380.684 438.181C380.684 437.472 380.159 437.117 379.11 437.117C378.488 437.117 378.056 437.243 377.813 437.496C377.57 437.739 377.434 438.113 377.404 438.618H376.195C376.224 437.851 376.491 437.238 376.996 436.782C377.502 436.325 378.23 436.097 379.183 436.097C379.989 436.097 380.631 436.286 381.107 436.665C381.593 437.034 381.836 437.646 381.836 438.502V442.233C381.836 442.505 381.87 442.695 381.938 442.802C382.015 442.899 382.151 442.947 382.346 442.947C382.433 442.947 382.521 442.938 382.608 442.918V443.734C382.424 443.793 382.181 443.822 381.879 443.822C381.539 443.822 381.267 443.734 381.063 443.56C380.869 443.385 380.752 443.083 380.713 442.656H380.684C380.431 443.054 380.091 443.37 379.664 443.603C379.236 443.836 378.745 443.953 378.192 443.953ZM377.069 441.767C377.069 442.155 377.176 442.447 377.39 442.641C377.604 442.836 377.958 442.933 378.454 442.933C379.115 442.933 379.649 442.763 380.057 442.423C380.475 442.082 380.684 441.572 380.684 440.892V439.682C380.538 439.818 380.368 439.92 380.174 439.988C379.98 440.056 379.591 440.154 379.008 440.28C378.503 440.396 378.114 440.513 377.842 440.63C377.579 440.737 377.385 440.878 377.259 441.052C377.132 441.227 377.069 441.465 377.069 441.767ZM387.792 443.953C387.131 443.953 386.543 443.788 386.028 443.457C385.523 443.127 385.129 442.666 384.847 442.073C384.575 441.48 384.439 440.8 384.439 440.032C384.439 439.264 384.575 438.584 384.847 437.991C385.129 437.399 385.523 436.937 386.028 436.607C386.543 436.276 387.131 436.111 387.792 436.111C388.355 436.111 388.856 436.237 389.293 436.49C389.74 436.733 390.095 437.073 390.357 437.51C390.629 437.948 390.794 438.443 390.853 438.997H389.628C389.599 438.511 389.429 438.079 389.118 437.7C388.817 437.321 388.375 437.131 387.792 437.131C387.092 437.131 386.562 437.418 386.203 437.991C385.843 438.565 385.664 439.245 385.664 440.032C385.664 440.819 385.843 441.499 386.203 442.073C386.562 442.646 387.092 442.933 387.792 442.933C388.384 442.933 388.831 442.743 389.133 442.364C389.434 441.976 389.599 441.524 389.628 441.009H390.853C390.823 441.563 390.673 442.063 390.401 442.51C390.138 442.957 389.779 443.312 389.322 443.574C388.865 443.827 388.355 443.953 387.792 443.953ZM396.167 443.968C395.487 443.968 394.899 443.798 394.404 443.457C393.908 443.117 393.529 442.651 393.267 442.058C393.014 441.456 392.888 440.775 392.888 440.018C392.888 439.24 393.019 438.555 393.281 437.962C393.553 437.369 393.937 436.913 394.433 436.592C394.928 436.262 395.506 436.097 396.167 436.097C397.149 436.097 397.916 436.432 398.47 437.102C399.024 437.773 399.301 438.657 399.301 439.755C399.301 440.066 399.296 440.26 399.287 440.338H394.112C394.122 440.785 394.204 441.213 394.36 441.621C394.525 442.019 394.763 442.345 395.074 442.598C395.385 442.84 395.759 442.962 396.196 442.962C396.731 442.962 397.149 442.806 397.45 442.495C397.751 442.175 397.946 441.83 398.033 441.461H399.214C399.029 442.199 398.684 442.802 398.179 443.268C397.673 443.734 397.003 443.968 396.167 443.968ZM398.062 439.318C398.062 438.686 397.887 438.161 397.537 437.744C397.188 437.316 396.716 437.102 396.124 437.102C395.56 437.102 395.093 437.306 394.724 437.714C394.355 438.123 394.151 438.657 394.112 439.318H398.062ZM404.878 443.953C403.868 443.953 403.129 443.564 402.663 442.787H402.619V443.749H401.453V433.327H402.619V437.233H402.663C402.886 436.903 403.178 436.636 403.537 436.432C403.906 436.218 404.353 436.111 404.878 436.111C405.471 436.111 406.005 436.271 406.482 436.592C406.958 436.903 407.332 437.355 407.604 437.948C407.876 438.54 408.012 439.235 408.012 440.032C408.012 440.829 407.876 441.524 407.604 442.116C407.332 442.709 406.958 443.166 406.482 443.487C406.005 443.798 405.471 443.953 404.878 443.953ZM402.633 440.032C402.633 440.907 402.823 441.611 403.202 442.146C403.581 442.67 404.086 442.933 404.718 442.933C405.155 442.933 405.529 442.797 405.84 442.525C406.161 442.253 406.399 441.898 406.554 441.461C406.71 441.014 406.788 440.537 406.788 440.032C406.788 439.235 406.608 438.555 406.248 437.991C405.889 437.418 405.379 437.131 404.718 437.131C404.086 437.131 403.581 437.399 403.202 437.933C402.823 438.458 402.633 439.158 402.633 440.032ZM411.986 443.953C411.257 443.953 410.684 443.759 410.266 443.37C409.848 442.972 409.639 442.427 409.639 441.738C409.639 441.232 409.756 440.824 409.989 440.513C410.222 440.192 410.547 439.945 410.965 439.77C411.393 439.595 411.942 439.444 412.612 439.318C413.108 439.221 413.472 439.138 413.706 439.07C413.949 439.002 414.138 438.9 414.274 438.764C414.41 438.618 414.478 438.424 414.478 438.181C414.478 437.472 413.953 437.117 412.904 437.117C412.282 437.117 411.85 437.243 411.607 437.496C411.364 437.739 411.228 438.113 411.199 438.618H409.989C410.018 437.851 410.285 437.238 410.79 436.782C411.296 436.325 412.025 436.097 412.977 436.097C413.783 436.097 414.425 436.286 414.901 436.665C415.387 437.034 415.63 437.646 415.63 438.502V442.233C415.63 442.505 415.664 442.695 415.732 442.802C415.81 442.899 415.946 442.947 416.14 442.947C416.227 442.947 416.315 442.938 416.402 442.918V443.734C416.218 443.793 415.975 443.822 415.673 443.822C415.333 443.822 415.061 443.734 414.857 443.56C414.663 443.385 414.546 443.083 414.507 442.656H414.478C414.226 443.054 413.885 443.37 413.458 443.603C413.03 443.836 412.54 443.953 411.986 443.953ZM410.863 441.767C410.863 442.155 410.97 442.447 411.184 442.641C411.398 442.836 411.752 442.933 412.248 442.933C412.909 442.933 413.443 442.763 413.851 442.423C414.269 442.082 414.478 441.572 414.478 440.892V439.682C414.332 439.818 414.162 439.92 413.968 439.988C413.774 440.056 413.385 440.154 412.802 440.28C412.297 440.396 411.908 440.513 411.636 440.63C411.373 440.737 411.179 440.878 411.053 441.052C410.926 441.227 410.863 441.465 410.863 441.767ZM421.178 442.729H423.801V443.749H418.262V442.729H420.011V437.335H418.262V436.315H421.178V437.787H421.221C421.445 437.292 421.819 436.888 422.344 436.578C422.868 436.267 423.437 436.111 424.049 436.111C424.37 436.111 424.676 436.126 424.967 436.155V437.321C424.754 437.292 424.448 437.277 424.049 437.277C423.583 437.277 423.126 437.389 422.679 437.612C422.242 437.836 421.882 438.142 421.6 438.531C421.318 438.91 421.178 439.328 421.178 439.784V442.729Z" fill="#B7B2A4" style="fill:#B7B2A4;fill:color(display-p3 0.7176 0.6980 0.6431);fill-opacity:1;"/>
<rect x="241.24" y="243.155" width="39.2078" height="39.2064" rx="3.39406" stroke="#B7B2A4" style="stroke:#B7B2A4;stroke:color(display-p3 0.7176 0.6980 0.6431);stroke-opacity:1;" stroke-width="0.5"/>
<rect x="187.04" y="200.261" width="69.2997" height="39.2741" rx="3.39406" stroke="#B7B2A4" style="stroke:#B7B2A4;stroke:color(display-p3 0.7176 0.6980 0.6431);stroke-opacity:1;" stroke-width="0.5"/>
<rect x="187.04" y="243.155" width="50.9724" height="39.2741" rx="3.39406" stroke="#B7B2A4" style="stroke:#B7B2A4;stroke:color(display-p3 0.7176 0.6980 0.6431);stroke-opacity:1;" stroke-width="0.5"/>
<path d="M82.4885 224.095C81.7306 224.095 81.0601 223.949 80.477 223.658C79.894 223.357 79.4275 222.929 79.0777 222.375C78.7376 221.821 78.553 221.16 78.5238 220.393H79.894C79.9523 221.16 80.1806 221.782 80.5791 222.259C80.9872 222.725 81.6091 222.958 82.4448 222.958C83.7372 222.958 84.3835 222.322 84.3835 221.049C84.3835 220.582 84.2911 220.228 84.1065 219.985C83.9219 219.732 83.6789 219.543 83.3777 219.416C83.0765 219.29 82.5517 219.12 81.8035 218.906C81.201 218.731 80.7005 218.551 80.3021 218.367C79.9134 218.172 79.5782 217.891 79.2963 217.521C79.0243 217.142 78.8882 216.642 78.8882 216.02C78.8882 215.184 79.1652 214.519 79.7191 214.023C80.273 213.518 81.0309 213.265 81.993 213.265C83.0327 213.265 83.8587 213.561 84.4709 214.154C85.0831 214.737 85.4232 215.539 85.4912 216.559H84.1211C84.0433 215.84 83.8344 215.301 83.4943 214.941C83.1542 214.582 82.6586 214.402 82.0075 214.402C81.4342 214.402 80.9969 214.538 80.6957 214.81C80.4041 215.072 80.2584 215.456 80.2584 215.962C80.2584 216.36 80.3458 216.676 80.5208 216.909C80.6957 217.142 80.924 217.322 81.2058 217.448C81.4974 217.575 81.8958 217.706 82.4011 217.842C83.1493 218.056 83.747 218.265 84.194 218.469C84.641 218.663 85.0102 218.964 85.3018 219.372C85.603 219.771 85.7536 220.315 85.7536 221.005C85.7536 221.918 85.4767 222.662 84.9228 223.235C84.3689 223.809 83.5575 224.095 82.4885 224.095ZM92.0594 223.964C91.4569 223.964 90.9662 223.906 90.5872 223.789C90.218 223.672 89.9362 223.468 89.7418 223.177C89.5475 222.876 89.4503 222.448 89.4503 221.894V217.478H86.9723V216.457H89.4503V213.979H90.6164V216.457H93.8232V217.478H90.6164V221.952C90.6164 222.341 90.733 222.604 90.9662 222.74C91.1994 222.876 91.6124 222.944 92.2052 222.944C92.8174 222.944 93.3567 222.929 93.8232 222.9V223.891C93.415 223.94 92.8271 223.964 92.0594 223.964ZM99.1669 224.11C98.4867 224.11 97.8988 223.94 97.4032 223.6C96.9076 223.259 96.5286 222.793 96.2663 222.2C96.0136 221.598 95.8873 220.918 95.8873 220.16C95.8873 219.382 96.0185 218.697 96.2808 218.104C96.5529 217.512 96.9368 217.055 97.4324 216.734C97.928 216.404 98.5061 216.239 99.1669 216.239C100.148 216.239 100.916 216.574 101.47 217.244C102.024 217.915 102.301 218.799 102.301 219.897C102.301 220.208 102.296 220.403 102.286 220.48H97.1117C97.1214 220.927 97.204 221.355 97.3595 221.763C97.5247 222.161 97.7628 222.487 98.0737 222.74C98.3847 222.983 98.7588 223.104 99.1961 223.104C99.7306 223.104 100.148 222.949 100.45 222.638C100.751 222.317 100.945 221.972 101.033 221.603H102.213C102.029 222.341 101.684 222.944 101.178 223.41C100.673 223.877 100.003 224.11 99.1669 224.11ZM101.062 219.46C101.062 218.828 100.887 218.304 100.537 217.886C100.187 217.458 99.716 217.244 99.1232 217.244C98.5596 217.244 98.0932 217.448 97.7239 217.857C97.3546 218.265 97.1506 218.799 97.1117 219.46H101.062ZM104.452 216.457H105.619V217.376H105.662C105.886 217.045 106.177 216.778 106.537 216.574C106.906 216.36 107.353 216.253 107.878 216.253C108.471 216.253 109.005 216.414 109.481 216.734C109.957 217.045 110.331 217.497 110.604 218.09C110.876 218.683 111.012 219.377 111.012 220.174C111.012 220.971 110.876 221.666 110.604 222.259C110.331 222.851 109.957 223.308 109.481 223.629C109.005 223.94 108.471 224.095 107.878 224.095C106.867 224.095 106.129 223.706 105.662 222.929H105.619V226.471H104.452V216.457ZM105.633 220.174C105.633 221.049 105.823 221.753 106.202 222.288C106.581 222.812 107.086 223.075 107.717 223.075C108.378 223.075 108.888 222.793 109.248 222.229C109.608 221.656 109.787 220.971 109.787 220.174C109.787 219.368 109.608 218.683 109.248 218.119C108.888 217.555 108.378 217.274 107.717 217.274C107.086 217.274 106.581 217.541 106.202 218.075C105.823 218.6 105.633 219.3 105.633 220.174ZM112.901 216.457H114.067V217.376H114.111C114.334 217.045 114.626 216.778 114.985 216.574C115.355 216.36 115.802 216.253 116.326 216.253C116.919 216.253 117.454 216.414 117.93 216.734C118.406 217.045 118.78 217.497 119.052 218.09C119.324 218.683 119.46 219.377 119.46 220.174C119.46 220.971 119.324 221.666 119.052 222.259C118.78 222.851 118.406 223.308 117.93 223.629C117.454 223.94 116.919 224.095 116.326 224.095C115.316 224.095 114.577 223.706 114.111 222.929H114.067V226.471H112.901V216.457ZM114.082 220.174C114.082 221.049 114.271 221.753 114.65 222.288C115.029 222.812 115.534 223.075 116.166 223.075C116.827 223.075 117.337 222.793 117.697 222.229C118.056 221.656 118.236 220.971 118.236 220.174C118.236 219.368 118.056 218.683 117.697 218.119C117.337 217.555 116.827 217.274 116.166 217.274C115.534 217.274 115.029 217.541 114.65 218.075C114.271 218.6 114.082 219.3 114.082 220.174ZM124.512 224.11C123.832 224.11 123.244 223.94 122.749 223.6C122.253 223.259 121.874 222.793 121.612 222.2C121.359 221.598 121.233 220.918 121.233 220.16C121.233 219.382 121.364 218.697 121.626 218.104C121.898 217.512 122.282 217.055 122.778 216.734C123.274 216.404 123.852 216.239 124.512 216.239C125.494 216.239 126.262 216.574 126.816 217.244C127.369 217.915 127.646 218.799 127.646 219.897C127.646 220.208 127.642 220.403 127.632 220.48H122.457C122.467 220.927 122.55 221.355 122.705 221.763C122.87 222.161 123.108 222.487 123.419 222.74C123.73 222.983 124.104 223.104 124.542 223.104C125.076 223.104 125.494 222.949 125.795 222.638C126.096 222.317 126.291 221.972 126.378 221.603H127.559C127.374 222.341 127.029 222.944 126.524 223.41C126.019 223.877 125.348 224.11 124.512 224.11ZM126.407 219.46C126.407 218.828 126.232 218.304 125.883 217.886C125.533 217.458 125.062 217.244 124.469 217.244C123.905 217.244 123.439 217.448 123.069 217.857C122.7 218.265 122.496 218.799 122.457 219.46H126.407ZM132.495 224.095C131.902 224.095 131.367 223.94 130.891 223.629C130.415 223.308 130.041 222.851 129.769 222.259C129.497 221.656 129.361 220.961 129.361 220.174C129.361 219.387 129.497 218.697 129.769 218.104C130.041 217.502 130.415 217.045 130.891 216.734C131.367 216.414 131.902 216.253 132.495 216.253C133.039 216.253 133.491 216.36 133.85 216.574C134.219 216.788 134.506 217.069 134.71 217.419H134.754V213.469H135.92V223.891H134.754V222.973H134.71C134.487 223.303 134.19 223.575 133.821 223.789C133.452 223.993 133.01 224.095 132.495 224.095ZM130.585 220.174C130.585 220.679 130.663 221.156 130.818 221.603C130.974 222.04 131.207 222.395 131.518 222.667C131.839 222.939 132.218 223.075 132.655 223.075C133.287 223.075 133.792 222.812 134.171 222.288C134.56 221.763 134.754 221.058 134.754 220.174C134.754 219.29 134.56 218.585 134.171 218.061C133.792 217.536 133.287 217.274 132.655 217.274C132.218 217.274 131.839 217.41 131.518 217.682C131.207 217.954 130.974 218.313 130.818 218.76C130.663 219.198 130.585 219.669 130.585 220.174ZM149.931 224.095C149.202 224.095 148.57 223.867 148.036 223.41C147.511 222.944 147.113 222.302 146.841 221.486C146.569 220.67 146.433 219.732 146.433 218.673C146.433 217.623 146.569 216.69 146.841 215.874C147.123 215.058 147.526 214.421 148.051 213.965C148.585 213.498 149.222 213.265 149.96 213.265C150.893 213.265 151.636 213.605 152.19 214.285C152.744 214.956 153.07 215.83 153.167 216.909H151.797C151.68 216.132 151.481 215.524 151.199 215.087C150.917 214.65 150.49 214.431 149.916 214.431C149.158 214.431 148.614 214.834 148.284 215.641C147.963 216.448 147.803 217.458 147.803 218.673C147.803 219.897 147.963 220.913 148.284 221.719C148.614 222.526 149.163 222.929 149.931 222.929C151.048 222.929 151.67 221.996 151.797 220.13H153.167C153.079 221.326 152.759 222.288 152.205 223.017C151.651 223.736 150.893 224.095 149.931 224.095ZM157.228 224.095C156.499 224.095 155.926 223.901 155.508 223.512C155.09 223.114 154.881 222.57 154.881 221.88C154.881 221.374 154.998 220.966 155.231 220.655C155.464 220.335 155.79 220.087 156.208 219.912C156.635 219.737 157.184 219.586 157.855 219.46C158.35 219.363 158.715 219.28 158.948 219.212C159.191 219.144 159.38 219.042 159.516 218.906C159.652 218.76 159.72 218.566 159.72 218.323C159.72 217.614 159.196 217.259 158.146 217.259C157.524 217.259 157.092 217.385 156.849 217.638C156.606 217.881 156.47 218.255 156.441 218.76H155.231C155.26 217.993 155.527 217.38 156.033 216.924C156.538 216.467 157.267 216.239 158.219 216.239C159.026 216.239 159.667 216.428 160.143 216.807C160.629 217.176 160.872 217.789 160.872 218.644V222.375C160.872 222.647 160.906 222.837 160.974 222.944C161.052 223.041 161.188 223.089 161.382 223.089C161.47 223.089 161.557 223.08 161.645 223.06V223.877C161.46 223.935 161.217 223.964 160.916 223.964C160.576 223.964 160.304 223.877 160.099 223.702C159.905 223.527 159.788 223.225 159.75 222.798H159.72C159.468 223.196 159.128 223.512 158.7 223.745C158.273 223.979 157.782 224.095 157.228 224.095ZM156.106 221.909C156.106 222.297 156.212 222.589 156.426 222.783C156.64 222.978 156.995 223.075 157.49 223.075C158.151 223.075 158.686 222.905 159.094 222.565C159.512 222.225 159.72 221.714 159.72 221.034V219.824C159.575 219.96 159.405 220.062 159.21 220.13C159.016 220.198 158.627 220.296 158.044 220.422C157.539 220.539 157.15 220.655 156.878 220.772C156.616 220.879 156.421 221.02 156.295 221.195C156.169 221.369 156.106 221.608 156.106 221.909ZM163.592 216.457H164.758V217.376H164.802C165.025 217.045 165.317 216.778 165.676 216.574C166.046 216.36 166.493 216.253 167.017 216.253C167.61 216.253 168.145 216.414 168.621 216.734C169.097 217.045 169.471 217.497 169.743 218.09C170.015 218.683 170.151 219.377 170.151 220.174C170.151 220.971 170.015 221.666 169.743 222.259C169.471 222.851 169.097 223.308 168.621 223.629C168.145 223.94 167.61 224.095 167.017 224.095C166.007 224.095 165.268 223.706 164.802 222.929H164.758V226.471H163.592V216.457ZM164.773 220.174C164.773 221.049 164.962 221.753 165.341 222.288C165.72 222.812 166.225 223.075 166.857 223.075C167.518 223.075 168.028 222.793 168.388 222.229C168.747 221.656 168.927 220.971 168.927 220.174C168.927 219.368 168.747 218.683 168.388 218.119C168.028 217.555 167.518 217.274 166.857 217.274C166.225 217.274 165.72 217.541 165.341 218.075C164.962 218.6 164.773 219.3 164.773 220.174ZM175.364 224.095C174.314 224.095 173.503 223.847 172.93 223.352C172.366 222.856 172.07 222.21 172.041 221.413H173.236C173.265 221.909 173.454 222.312 173.804 222.623C174.154 222.924 174.669 223.075 175.349 223.075C175.942 223.075 176.379 222.958 176.661 222.725C176.943 222.482 177.084 222.191 177.084 221.85C177.084 221.559 177.016 221.335 176.88 221.18C176.744 221.024 176.545 220.908 176.282 220.83C176.03 220.743 175.612 220.636 175.029 220.509C174.416 220.383 173.926 220.252 173.556 220.116C173.187 219.97 172.886 219.756 172.653 219.475C172.42 219.193 172.303 218.814 172.303 218.338C172.303 217.706 172.541 217.201 173.017 216.822C173.503 216.443 174.174 216.253 175.029 216.253C175.971 216.253 176.695 216.472 177.201 216.909C177.706 217.337 177.988 217.895 178.046 218.585H176.851C176.666 217.711 176.059 217.274 175.029 217.274C174.553 217.274 174.183 217.366 173.921 217.55C173.659 217.735 173.527 217.983 173.527 218.294C173.527 218.527 173.591 218.712 173.717 218.848C173.843 218.984 174.038 219.096 174.3 219.183C174.572 219.27 174.985 219.372 175.539 219.489C176.122 219.615 176.603 219.756 176.982 219.912C177.371 220.058 177.686 220.286 177.929 220.597C178.182 220.898 178.308 221.301 178.308 221.807C178.308 222.506 178.046 223.065 177.521 223.483C177.006 223.891 176.287 224.095 175.364 224.095Z" fill="#B7B2A4" style="fill:#B7B2A4;fill:color(display-p3 0.7176 0.6980 0.6431);fill-opacity:1;"/>
<path d="M48.7276 269.039C47.9696 269.039 47.2991 268.893 46.7161 268.601C46.133 268.3 45.6666 267.872 45.3168 267.319C44.9767 266.765 44.792 266.104 44.7629 265.336H46.133C46.1913 266.104 46.4197 266.726 46.8181 267.202C47.2263 267.668 47.8482 267.902 48.6839 267.902C49.9763 267.902 50.6225 267.265 50.6225 265.992C50.6225 265.526 50.5302 265.171 50.3456 264.928C50.1609 264.675 49.918 264.486 49.6168 264.36C49.3155 264.233 48.7908 264.063 48.0425 263.849C47.44 263.674 46.9396 263.495 46.5412 263.31C46.1525 263.116 45.8172 262.834 45.5354 262.465C45.2633 262.086 45.1273 261.585 45.1273 260.963C45.1273 260.128 45.4042 259.462 45.9581 258.966C46.512 258.461 47.27 258.208 48.232 258.208C49.2718 258.208 50.0978 258.505 50.71 259.098C51.3222 259.681 51.6623 260.482 51.7303 261.503H50.3601C50.2824 260.784 50.0735 260.244 49.7334 259.885C49.3933 259.525 48.8977 259.345 48.2466 259.345C47.6733 259.345 47.236 259.481 46.9347 259.753C46.6432 260.016 46.4974 260.4 46.4974 260.905C46.4974 261.303 46.5849 261.619 46.7598 261.852C46.9347 262.086 47.1631 262.265 47.4449 262.392C47.7364 262.518 48.1348 262.649 48.6401 262.785C49.3884 262.999 49.986 263.208 50.433 263.412C50.88 263.606 51.2493 263.908 51.5408 264.316C51.8421 264.714 51.9927 265.258 51.9927 265.948C51.9927 266.862 51.7157 267.605 51.1618 268.179C50.6079 268.752 49.7965 269.039 48.7276 269.039ZM53.7944 261.401H54.9605V262.319H55.0043C55.2278 261.989 55.5193 261.721 55.8788 261.517C56.2481 261.303 56.6951 261.197 57.2199 261.197C57.8126 261.197 58.3471 261.357 58.8232 261.678C59.2994 261.989 59.6735 262.44 59.9456 263.033C60.2177 263.626 60.3537 264.321 60.3537 265.118C60.3537 265.914 60.2177 266.609 59.9456 267.202C59.6735 267.795 59.2994 268.251 58.8232 268.572C58.3471 268.883 57.8126 269.039 57.2199 269.039C56.2092 269.039 55.4707 268.65 55.0043 267.872H54.9605V271.414H53.7944V261.401ZM54.9751 265.118C54.9751 265.992 55.1646 266.697 55.5436 267.231C55.9226 267.756 56.4279 268.018 57.0595 268.018C57.7203 268.018 58.2305 267.736 58.59 267.173C58.9496 266.599 59.1293 265.914 59.1293 265.118C59.1293 264.311 58.9496 263.626 58.59 263.062C58.2305 262.499 57.7203 262.217 57.0595 262.217C56.4279 262.217 55.9226 262.484 55.5436 263.019C55.1646 263.543 54.9751 264.243 54.9751 265.118ZM62.0972 267.814H64.7209V259.433H62.0972V258.412H65.887V267.814H68.5107V268.834H62.0972V267.814ZM71.0996 267.814H73.4318V262.421H71.0996V261.401H74.5979V267.814H76.6386V268.834H71.0996V267.814ZM72.9945 258.267H74.7145V259.958H72.9945V258.267ZM83.644 268.907C83.0416 268.907 82.5508 268.849 82.1718 268.732C81.8026 268.616 81.5208 268.412 81.3264 268.12C81.1321 267.819 81.0349 267.391 81.0349 266.838V262.421H78.5569V261.401H81.0349V258.923H82.201V261.401H85.4078V262.421H82.201V266.896C82.201 267.285 82.3176 267.547 82.5508 267.683C82.7841 267.819 83.197 267.887 83.7898 267.887C84.402 267.887 84.9413 267.872 85.4078 267.843V268.834C84.9996 268.883 84.4117 268.907 83.644 268.907ZM96.416 258.412H97.7279V267.668H102.684V268.834H96.416V258.412ZM107.649 269.053C106.968 269.053 106.38 268.883 105.885 268.543C105.389 268.203 105.01 267.736 104.748 267.144C104.495 266.541 104.369 265.861 104.369 265.103C104.369 264.326 104.5 263.64 104.762 263.048C105.035 262.455 105.418 261.998 105.914 261.678C106.41 261.347 106.988 261.182 107.649 261.182C108.63 261.182 109.398 261.517 109.952 262.188C110.506 262.858 110.782 263.743 110.782 264.841C110.782 265.152 110.778 265.346 110.768 265.424H105.593C105.603 265.871 105.686 266.298 105.841 266.706C106.006 267.105 106.244 267.43 106.555 267.683C106.866 267.926 107.24 268.047 107.678 268.047C108.212 268.047 108.63 267.892 108.931 267.581C109.233 267.26 109.427 266.915 109.514 266.546H110.695C110.51 267.285 110.165 267.887 109.66 268.353C109.155 268.82 108.484 269.053 107.649 269.053ZM109.544 264.403C109.544 263.772 109.369 263.247 109.019 262.829C108.669 262.401 108.198 262.188 107.605 262.188C107.041 262.188 106.575 262.392 106.206 262.8C105.836 263.208 105.632 263.743 105.593 264.403H109.544ZM115.121 260.395C115.121 259.831 115.203 259.404 115.368 259.112C115.543 258.811 115.815 258.607 116.185 258.5C116.564 258.383 117.088 258.325 117.759 258.325C118.177 258.325 118.706 258.359 119.348 258.427V259.418C118.813 259.37 118.284 259.345 117.759 259.345C117.341 259.345 117.025 259.374 116.811 259.433C116.607 259.491 116.466 259.588 116.389 259.724C116.321 259.86 116.287 260.064 116.287 260.337V261.401H119.348V262.421H116.287V267.814H119.056V268.834H113.24V267.814H115.121V262.421H112.934V261.401H115.121V260.395ZM125.887 268.907C125.284 268.907 124.793 268.849 124.414 268.732C124.045 268.616 123.763 268.412 123.569 268.12C123.375 267.819 123.278 267.391 123.278 266.838V262.421H120.8V261.401H123.278V258.923H124.444V261.401H127.65V262.421H124.444V266.896C124.444 267.285 124.56 267.547 124.793 267.683C125.027 267.819 125.44 267.887 126.032 267.887C126.645 267.887 127.184 267.872 127.65 267.843V268.834C127.242 268.883 126.654 268.907 125.887 268.907ZM141.661 269.039C140.903 269.039 140.233 268.893 139.65 268.601C139.067 268.3 138.6 267.872 138.25 267.319C137.91 266.765 137.726 266.104 137.697 265.336H139.067C139.125 266.104 139.353 266.726 139.752 267.202C140.16 267.668 140.782 267.902 141.618 267.902C142.91 267.902 143.556 267.265 143.556 265.992C143.556 265.526 143.464 265.171 143.279 264.928C143.095 264.675 142.852 264.486 142.55 264.36C142.249 264.233 141.724 264.063 140.976 263.849C140.374 263.674 139.873 263.495 139.475 263.31C139.086 263.116 138.751 262.834 138.469 262.465C138.197 262.086 138.061 261.585 138.061 260.963C138.061 260.128 138.338 259.462 138.892 258.966C139.446 258.461 140.204 258.208 141.166 258.208C142.205 258.208 143.031 258.505 143.644 259.098C144.256 259.681 144.596 260.482 144.664 261.503H143.294C143.216 260.784 143.007 260.244 142.667 259.885C142.327 259.525 141.831 259.345 141.18 259.345C140.607 259.345 140.17 259.481 139.868 259.753C139.577 260.016 139.431 260.4 139.431 260.905C139.431 261.303 139.519 261.619 139.694 261.852C139.868 262.086 140.097 262.265 140.379 262.392C140.67 262.518 141.069 262.649 141.574 262.785C142.322 262.999 142.92 263.208 143.367 263.412C143.814 263.606 144.183 263.908 144.475 264.316C144.776 264.714 144.926 265.258 144.926 265.948C144.926 266.862 144.649 267.605 144.096 268.179C143.542 268.752 142.73 269.039 141.661 269.039ZM146.786 258.412H147.953V262.304H147.982C148.225 261.993 148.55 261.731 148.958 261.517C149.376 261.303 149.881 261.197 150.474 261.197C151.193 261.197 151.776 261.405 152.223 261.823C152.68 262.231 152.908 262.844 152.908 263.66V268.834H151.742V263.937C151.742 263.412 151.611 262.994 151.349 262.683C151.096 262.372 150.693 262.217 150.139 262.217C149.488 262.217 148.958 262.401 148.55 262.771C148.152 263.14 147.953 263.616 147.953 264.199V268.834H146.786V258.412ZM155.585 267.814H157.917V262.421H155.585V261.401H159.083V267.814H161.124V268.834H155.585V267.814ZM157.48 258.267H159.2V259.958H157.48V258.267ZM165.812 260.395C165.812 259.831 165.894 259.404 166.059 259.112C166.234 258.811 166.506 258.607 166.876 258.5C167.255 258.383 167.779 258.325 168.45 258.325C168.868 258.325 169.397 258.359 170.039 258.427V259.418C169.504 259.37 168.975 259.345 168.45 259.345C168.032 259.345 167.716 259.374 167.502 259.433C167.298 259.491 167.157 259.588 167.08 259.724C167.012 259.86 166.978 260.064 166.978 260.337V261.401H170.039V262.421H166.978V267.814H169.747V268.834H163.931V267.814H165.812V262.421H163.625V261.401H165.812V260.395ZM176.578 268.907C175.975 268.907 175.485 268.849 175.106 268.732C174.736 268.616 174.454 268.412 174.26 268.12C174.066 267.819 173.969 267.391 173.969 266.838V262.421H171.491V261.401H173.969V258.923H175.135V261.401H178.341V262.421H175.135V266.896C175.135 267.285 175.251 267.547 175.485 267.683C175.718 267.819 176.131 267.887 176.724 267.887C177.336 267.887 177.875 267.872 178.341 267.843V268.834C177.933 268.883 177.345 268.907 176.578 268.907Z" fill="#B7B2A4" style="fill:#B7B2A4;fill:color(display-p3 0.7176 0.6980 0.6431);fill-opacity:1;"/>
<rect x="332.803" y="113.474" width="39.2078" height="39.2064" rx="3.39406" stroke="#B7B2A4" style="stroke:#B7B2A4;stroke:color(display-p3 0.7176 0.6980 0.6431);stroke-opacity:1;" stroke-width="0.5"/>
<rect x="375.482" y="113.474" width="39.2078" height="39.2064" rx="3.39406" stroke="#B7B2A4" style="stroke:#B7B2A4;stroke:color(display-p3 0.7176 0.6980 0.6431);stroke-opacity:1;" stroke-width="0.5"/>
<rect x="395.046" y="156.368" width="39.2078" height="39.2064" rx="3.39406" stroke="#B7B2A4" style="stroke:#B7B2A4;stroke:color(display-p3 0.7176 0.6980 0.6431);stroke-opacity:1;" stroke-width="0.5"/>
<rect x="405.964" y="199.261" width="39.2078" height="39.2064" rx="3.39406" stroke="#B7B2A4" style="stroke:#B7B2A4;stroke:color(display-p3 0.7176 0.6980 0.6431);stroke-opacity:1;" stroke-width="0.5"/>
<rect x="425.071" y="242.155" width="39.2078" height="39.2064" rx="3.39406" stroke="#B7B2A4" style="stroke:#B7B2A4;stroke:color(display-p3 0.7176 0.6980 0.6431);stroke-opacity:1;" stroke-width="0.5"/>
<rect x="437.873" y="156.368" width="39.2078" height="39.2064" rx="3.39406" stroke="#B7B2A4" style="stroke:#B7B2A4;stroke:color(display-p3 0.7176 0.6980 0.6431);stroke-opacity:1;" stroke-width="0.5"/>
<rect x="448.791" y="199.261" width="39.2078" height="39.2064" rx="3.39406" stroke="#B7B2A4" style="stroke:#B7B2A4;stroke:color(display-p3 0.7176 0.6980 0.6431);stroke-opacity:1;" stroke-width="0.5"/>
<rect x="467.898" y="242.155" width="39.2078" height="39.2064" rx="3.39406" stroke="#B7B2A4" style="stroke:#B7B2A4;stroke:color(display-p3 0.7176 0.6980 0.6431);stroke-opacity:1;" stroke-width="0.5"/>
<rect x="480.7" y="156.368" width="39.2078" height="39.2064" rx="3.39406" stroke="#B7B2A4" style="stroke:#B7B2A4;stroke:color(display-p3 0.7176 0.6980 0.6431);stroke-opacity:1;" stroke-width="0.5"/>
<rect x="491.618" y="199.261" width="39.2078" height="39.2064" rx="3.39406" stroke="#B7B2A4" style="stroke:#B7B2A4;stroke:color(display-p3 0.7176 0.6980 0.6431);stroke-opacity:1;" stroke-width="0.5"/>
<rect x="510.726" y="242.155" width="39.2078" height="39.2064" rx="3.39406" stroke="#B7B2A4" style="stroke:#B7B2A4;stroke:color(display-p3 0.7176 0.6980 0.6431);stroke-opacity:1;" stroke-width="0.5"/>
<rect x="523.527" y="156.368" width="39.2078" height="39.2064" rx="3.39406" stroke="#B7B2A4" style="stroke:#B7B2A4;stroke:color(display-p3 0.7176 0.6980 0.6431);stroke-opacity:1;" stroke-width="0.5"/>
<rect x="534.445" y="199.261" width="39.2078" height="39.2064" rx="3.39406" stroke="#B7B2A4" style="stroke:#B7B2A4;stroke:color(display-p3 0.7176 0.6980 0.6431);stroke-opacity:1;" stroke-width="0.5"/>
<rect x="553.553" y="242.155" width="39.2078" height="39.2064" rx="3.39406" stroke="#B7B2A4" style="stroke:#B7B2A4;stroke:color(display-p3 0.7176 0.6980 0.6431);stroke-opacity:1;" stroke-width="0.5"/>
<rect x="566.354" y="156.368" width="39.2078" height="39.2064" rx="3.39406" stroke="#B7B2A4" style="stroke:#B7B2A4;stroke:color(display-p3 0.7176 0.6980 0.6431);stroke-opacity:1;" stroke-width="0.5"/>
<rect x="577.272" y="199.261" width="39.2078" height="39.2064" rx="3.39406" stroke="#B7B2A4" style="stroke:#B7B2A4;stroke:color(display-p3 0.7176 0.6980 0.6431);stroke-opacity:1;" stroke-width="0.5"/>
<rect x="596.38" y="242.155" width="39.2078" height="39.2064" rx="3.39406" stroke="#B7B2A4" style="stroke:#B7B2A4;stroke:color(display-p3 0.7176 0.6980 0.6431);stroke-opacity:1;" stroke-width="0.5"/>
<rect x="609.182" y="156.368" width="39.2078" height="39.2064" rx="3.39406" stroke="#B7B2A4" style="stroke:#B7B2A4;stroke:color(display-p3 0.7176 0.6980 0.6431);stroke-opacity:1;" stroke-width="0.5"/>
<rect x="620.1" y="199.261" width="39.2078" height="39.2064" rx="3.39406" stroke="#B7B2A4" style="stroke:#B7B2A4;stroke:color(display-p3 0.7176 0.6980 0.6431);stroke-opacity:1;" stroke-width="0.5"/>
<rect x="639.207" y="242.155" width="39.2078" height="39.2064" rx="3.39406" stroke="#B7B2A4" style="stroke:#B7B2A4;stroke:color(display-p3 0.7176 0.6980 0.6431);stroke-opacity:1;" stroke-width="0.5"/>
<rect x="652.009" y="156.368" width="39.2078" height="39.2064" rx="3.39406" stroke="#B7B2A4" style="stroke:#B7B2A4;stroke:color(display-p3 0.7176 0.6980 0.6431);stroke-opacity:1;" stroke-width="0.5"/>
<rect x="662.927" y="199.261" width="39.2078" height="39.2064" rx="3.39406" stroke="#B7B2A4" style="stroke:#B7B2A4;stroke:color(display-p3 0.7176 0.6980 0.6431);stroke-opacity:1;" stroke-width="0.5"/>
<rect x="682.034" y="242.155" width="39.2078" height="39.2064" rx="3.39406" stroke="#B7B2A4" style="stroke:#B7B2A4;stroke:color(display-p3 0.7176 0.6980 0.6431);stroke-opacity:1;" stroke-width="0.5"/>
<rect x="694.836" y="156.368" width="39.2078" height="39.2064" rx="3.39406" stroke="#B7B2A4" style="stroke:#B7B2A4;stroke:color(display-p3 0.7176 0.6980 0.6431);stroke-opacity:1;" stroke-width="0.5"/>
<rect x="705.754" y="199.261" width="39.2078" height="39.2064" rx="3.39406" stroke="#B7B2A4" style="stroke:#B7B2A4;stroke:color(display-p3 0.7176 0.6980 0.6431);stroke-opacity:1;" stroke-width="0.5"/>
<rect x="724.861" y="242.155" width="39.2078" height="39.2064" rx="3.39406" stroke="#B7B2A4" style="stroke:#B7B2A4;stroke:color(display-p3 0.7176 0.6980 0.6431);stroke-opacity:1;" stroke-width="0.5"/>
<rect x="737.663" y="156.368" width="39.2078" height="39.2064" rx="3.39406" stroke="#B7B2A4" style="stroke:#B7B2A4;stroke:color(display-p3 0.7176 0.6980 0.6431);stroke-opacity:1;" stroke-width="0.5"/>
<rect x="748.581" y="199.261" width="39.2078" height="39.2064" rx="3.39406" stroke="#B7B2A4" style="stroke:#B7B2A4;stroke:color(display-p3 0.7176 0.6980 0.6431);stroke-opacity:1;" stroke-width="0.5"/>
<rect x="767.688" y="242.155" width="39.2078" height="39.2064" rx="3.39406" stroke="#B7B2A4" style="stroke:#B7B2A4;stroke:color(display-p3 0.7176 0.6980 0.6431);stroke-opacity:1;" stroke-width="0.5"/>
<rect x="780.49" y="156.368" width="39.2078" height="39.2064" rx="3.39406" stroke="#B7B2A4" style="stroke:#B7B2A4;stroke:color(display-p3 0.7176 0.6980 0.6431);stroke-opacity:1;" stroke-width="0.5"/>
<rect x="791.413" y="199.261" width="39.2078" height="39.2064" rx="3.39406" stroke="#B7B2A4" style="stroke:#B7B2A4;stroke:color(display-p3 0.7176 0.6980 0.6431);stroke-opacity:1;" stroke-width="0.5"/>
<rect x="810.516" y="242.155" width="39.2078" height="39.2064" rx="3.39406" stroke="#B7B2A4" style="stroke:#B7B2A4;stroke:color(display-p3 0.7176 0.6980 0.6431);stroke-opacity:1;" stroke-width="0.5"/>
<rect x="853.902" y="242.582" width="69.9518" height="38.3699" rx="3.39406" stroke="#B7B2A4" style="stroke:#B7B2A4;stroke:color(display-p3 0.7176 0.6980 0.6431);stroke-opacity:1;" stroke-width="0.5"/>
<rect x="823.317" y="156.368" width="39.2078" height="39.2064" rx="3.39406" stroke="#B7B2A4" style="stroke:#B7B2A4;stroke:color(display-p3 0.7176 0.6980 0.6431);stroke-opacity:1;" stroke-width="0.5"/>
<rect x="834.24" y="199.261" width="39.2078" height="39.2064" rx="3.39406" stroke="#B7B2A4" style="stroke:#B7B2A4;stroke:color(display-p3 0.7176 0.6980 0.6431);stroke-opacity:1;" stroke-width="0.5"/>
<rect x="876.981" y="198.853" width="89.3867" height="39.5846" rx="3.39406" stroke="#B7B2A4" style="stroke:#B7B2A4;stroke:color(display-p3 0.7176 0.6980 0.6431);stroke-opacity:1;" stroke-width="0.5"/>
<rect x="866.671" y="156.339" width="39.2081" height="39.2064" rx="3.39406" stroke="#B7B2A4" style="stroke:#B7B2A4;stroke:color(display-p3 0.7176 0.6980 0.6431);stroke-opacity:1;" stroke-width="0.5"/>
<rect x="909.778" y="156.339" width="56.5902" height="39.5846" rx="3.39406" stroke="#B7B2A4" style="stroke:#B7B2A4;stroke:color(display-p3 0.7176 0.6980 0.6431);stroke-opacity:1;" stroke-width="0.5"/>
<rect x="418.31" y="113.474" width="39.2078" height="39.2064" rx="3.39406" stroke="#B7B2A4" style="stroke:#B7B2A4;stroke:color(display-p3 0.7176 0.6980 0.6431);stroke-opacity:1;" stroke-width="0.5"/>
<rect x="461.137" y="113.474" width="39.2078" height="39.2064" rx="3.39406" stroke="#B7B2A4" style="stroke:#B7B2A4;stroke:color(display-p3 0.7176 0.6980 0.6431);stroke-opacity:1;" stroke-width="0.5"/>
<rect x="503.964" y="113.474" width="39.2078" height="39.2064" rx="3.39406" stroke="#B7B2A4" style="stroke:#B7B2A4;stroke:color(display-p3 0.7176 0.6980 0.6431);stroke-opacity:1;" stroke-width="0.5"/>
<rect x="546.791" y="113.474" width="39.2078" height="39.2064" rx="3.39406" stroke="#B7B2A4" style="stroke:#B7B2A4;stroke:color(display-p3 0.7176 0.6980 0.6431);stroke-opacity:1;" stroke-width="0.5"/>
<rect x="589.618" y="113.474" width="39.2078" height="39.2064" rx="3.39406" stroke="#B7B2A4" style="stroke:#B7B2A4;stroke:color(display-p3 0.7176 0.6980 0.6431);stroke-opacity:1;" stroke-width="0.5"/>
<rect x="632.445" y="113.474" width="39.2078" height="39.2064" rx="3.39406" stroke="#B7B2A4" style="stroke:#B7B2A4;stroke:color(display-p3 0.7176 0.6980 0.6431);stroke-opacity:1;" stroke-width="0.5"/>
<rect x="675.272" y="113.474" width="39.2078" height="39.2064" rx="3.39406" stroke="#B7B2A4" style="stroke:#B7B2A4;stroke:color(display-p3 0.7176 0.6980 0.6431);stroke-opacity:1;" stroke-width="0.5"/>
<rect x="718.1" y="113.474" width="39.2078" height="39.2064" rx="3.39406" stroke="#B7B2A4" style="stroke:#B7B2A4;stroke:color(display-p3 0.7176 0.6980 0.6431);stroke-opacity:1;" stroke-width="0.5"/>
<rect x="760.927" y="113.474" width="39.2078" height="39.2064" rx="3.39406" stroke="#B7B2A4" style="stroke:#B7B2A4;stroke:color(display-p3 0.7176 0.6980 0.6431);stroke-opacity:1;" stroke-width="0.5"/>
<rect x="803.754" y="113.474" width="39.2078" height="39.2064" rx="3.39406" stroke="#B7B2A4" style="stroke:#B7B2A4;stroke:color(display-p3 0.7176 0.6980 0.6431);stroke-opacity:1;" stroke-width="0.5"/>
<rect x="846.581" y="113.474" width="39.2078" height="39.2064" rx="3.39406" stroke="#B7B2A4" style="stroke:#B7B2A4;stroke:color(display-p3 0.7176 0.6980 0.6431);stroke-opacity:1;" stroke-width="0.5"/>
<rect x="889.129" y="113.825" width="77.2399" height="38.3699" rx="3.39406" stroke="#B7B2A4" style="stroke:#B7B2A4;stroke:color(display-p3 0.7176 0.6980 0.6431);stroke-opacity:1;" stroke-width="0.5"/>
<rect x="970.513" y="113.825" width="39.2081" height="38.3699" rx="3.39406" stroke="#B7B2A4" style="stroke:#B7B2A4;stroke:color(display-p3 0.7176 0.6980 0.6431);stroke-opacity:1;" stroke-width="0.5"/>
<rect x="970.513" y="156.339" width="39.2081" height="39.5846" rx="3.39406" stroke="#B7B2A4" style="stroke:#B7B2A4;stroke:color(display-p3 0.7176 0.6980 0.6431);stroke-opacity:1;" stroke-width="0.5"/>
<rect x="332.655" y="156.368" width="58.7712" height="39.2741" rx="3.39406" stroke="#B7B2A4" style="stroke:#B7B2A4;stroke:color(display-p3 0.7176 0.6980 0.6431);stroke-opacity:1;" stroke-width="0.5"/>
<rect x="333.044" y="199.261" width="69.2997" height="39.2741" rx="3.39406" stroke="#B7B2A4" style="stroke:#B7B2A4;stroke:color(display-p3 0.7176 0.6980 0.6431);stroke-opacity:1;" stroke-width="0.5"/>
<rect x="333.044" y="242.155" width="88.4068" height="39.2741" rx="3.39406" stroke="#B7B2A4" style="stroke:#B7B2A4;stroke:color(display-p3 0.7176 0.6980 0.6431);stroke-opacity:1;" stroke-width="0.5"/>
<rect x="970.513" y="198.853" width="39.2081" height="39.5846" rx="3.39406" stroke="#B7B2A4" style="stroke:#B7B2A4;stroke:color(display-p3 0.7176 0.6980 0.6431);stroke-opacity:1;" stroke-width="0.5"/>
<rect x="970.513" y="242.582" width="39.2081" height="38.3699" rx="3.39406" stroke="#B7B2A4" style="stroke:#B7B2A4;stroke:color(display-p3 0.7176 0.6980 0.6431);stroke-opacity:1;" stroke-width="0.5"/>
<rect x="806.824" y="285.438" width="51.3623" height="39.2741" rx="3.39406" stroke="#B7B2A4" style="stroke:#B7B2A4;stroke:color(display-p3 0.7176 0.6980 0.6431);stroke-opacity:1;" stroke-width="0.5"/>
<rect x="752.229" y="285.827" width="50.9724" height="39.2741" rx="3.39406" stroke="#B7B2A4" style="stroke:#B7B2A4;stroke:color(display-p3 0.7176 0.6980 0.6431);stroke-opacity:1;" stroke-width="0.5"/>
<rect x="442.229" y="285.827" width="51.3623" height="39.2741" rx="3.39406" stroke="#B7B2A4" style="stroke:#B7B2A4;stroke:color(display-p3 0.7176 0.6980 0.6431);stroke-opacity:1;" stroke-width="0.5"/>
<rect x="387.634" y="285.827" width="50.9724" height="39.2741" rx="3.39406" stroke="#B7B2A4" style="stroke:#B7B2A4;stroke:color(display-p3 0.7176 0.6980 0.6431);stroke-opacity:1;" stroke-width="0.5"/>
<rect x="332.655" y="285.049" width="50.9724" height="39.2741" rx="3.39406" stroke="#B7B2A4" style="stroke:#B7B2A4;stroke:color(display-p3 0.7176 0.6980 0.6431);stroke-opacity:1;" stroke-width="0.5"/>
<rect x="497.212" y="286.216" width="251.403" height="39.2741" rx="3.39406" stroke="#B7B2A4" style="stroke:#B7B2A4;stroke:color(display-p3 0.7176 0.6980 0.6431);stroke-opacity:1;" stroke-width="0.5"/>
<rect x="927.998" y="242.582" width="39.2078" height="39.2064" rx="3.39406" stroke="#B7B2A4" style="stroke:#B7B2A4;stroke:color(display-p3 0.7176 0.6980 0.6431);stroke-opacity:1;" stroke-width="0.5"/>
<rect x="927.619" y="284.982" width="39.2078" height="39.2064" rx="3.39406" stroke="#B7B2A4" style="stroke:#B7B2A4;stroke:color(display-p3 0.7176 0.6980 0.6431);stroke-opacity:1;" stroke-width="0.5"/>
<rect x="970.513" y="285.049" width="39.2078" height="39.2064" rx="3.39406" stroke="#B7B2A4" style="stroke:#B7B2A4;stroke:color(display-p3 0.7176 0.6980 0.6431);stroke-opacity:1;" stroke-width="0.5"/>
<rect x="884.27" y="285.049" width="39.2078" height="39.2064" rx="3.39406" stroke="#B7B2A4" style="stroke:#B7B2A4;stroke:color(display-p3 0.7176 0.6980 0.6431);stroke-opacity:1;" stroke-width="0.5"/>
<path d="M329.753 283.881L329.753 324.892C329.753 326.369 330.988 327.604 332.465 327.604H859.829C861.074 327.604 862.04 326.56 862.04 325.32V286.236C862.04 285.627 862.574 285.167 863.182 285.167H880.939C881.547 285.167 882.08 285.627 882.08 286.236V325.32C882.08 326.56 883.125 327.604 884.365 327.604H1009.47C1010.94 327.604 1012.18 326.337 1012.18 324.86V283.881M329.753 283.881V113.561C329.753 112.084 331.021 110.849 332.498 110.849H1009.47C1010.96 110.849 1012.18 112.084 1012.18 113.561V283.881M329.753 283.881L307 283.881M1012.18 283.881L1034.93 283.881M307 283.881V332.266C307 332.642 307 333.014 307.005 333.343M307 283.881V247.792M307 283.881V81.5345M307 333.381V347.502L307.074 347.79V348.147L307.144 348.43V348.788L307.214 349.071L307.288 349.429L307.358 349.786L307.427 350.07L307.501 350.427L307.571 350.715L307.715 350.998L307.785 351.356L307.929 351.639L308.073 351.927L308.142 352.285L308.286 352.568L308.426 352.851L308.57 353.139L308.783 353.422L308.927 353.71L309.071 353.993L309.285 354.281L309.498 354.565L309.642 354.848L309.856 355.066L310.069 355.349L310.283 355.563L310.497 355.851L310.71 356.064L310.924 356.348L311.207 356.561L311.425 356.775L311.709 356.988L311.922 357.202L312.205 357.416L312.493 357.634L312.707 357.848L312.99 357.987L313.278 358.2L313.561 358.344L313.849 358.488L314.132 358.702L314.42 358.846L314.704 358.985L315.061 359.129L315.344 359.273L315.632 359.343L315.99 359.487L316.273 359.556L316.556 359.7L316.914 359.77L317.202 359.844L317.555 359.914L317.843 359.984L318.2 360.058L318.558 360.127L318.841 360.197H319.482L319.839 360.271H1022.09H1022.46L1023.09 360.197L1023.45 360.127L1023.73 360.058L1024.09 359.984L1024.37 359.914L1024.73 359.844L1025.01 359.77L1025.37 359.7L1025.66 359.556L1025.94 359.487L1026.3 359.343L1026.58 359.273L1026.87 359.129L1027.23 358.985L1027.51 358.846L1027.8 358.702L1028.08 358.488L1028.36 358.344L1028.65 358.2L1028.94 357.987L1029.22 357.848L1029.44 357.634L1029.72 357.416L1030.01 357.202L1030.22 356.988L1030.51 356.775L1030.93 356.348L1031.22 356.064L1031.43 355.851L1031.65 355.633L1032.08 355.066L1032.29 354.848L1032.43 354.565L1032.65 354.281L1032.79 353.993L1033 353.71L1033.15 353.422L1033.29 353.139L1033.5 352.851L1033.79 352.285L1033.86 351.997L1034 351.639L1034.15 351.356L1034.22 350.998L1034.36 350.715L1034.43 350.427L1034.5 350.07L1034.57 349.786L1034.64 349.429L1034.71 349.146L1034.79 348.788V348.43L1034.86 348.147V347.79L1034.93 347.502V283.881M307.042 346.712C307.042 346.716 307.042 346.721 307.042 346.726M1034.96 346.731C1034.96 346.722 1034.96 346.712 1034.96 346.703M1034.93 283.881V81.5345M1034.93 283.881C1034.93 283.9 1034.43 283.881 1033.83 283.881M1035 81.4977C1035 79.6263 1033.48 78.1125 1031.61 78.1125M1031.58 78.1822H310.353M310.39 78.1125C308.519 78.1125 307 79.6263 307 81.4977M307.074 283.848C307.07 283.867 307.566 283.881 308.175 283.881" stroke="#B7B2A4" style="stroke:#B7B2A4;stroke:color(display-p3 0.7176 0.6980 0.6431);stroke-opacity:1;" stroke-width="0.5" stroke-miterlimit="10" stroke-linecap="round" stroke-linejoin="round"/>
</svg>
